<?xml version="1.0" encoding="utf-8"?>
<!-- Generator: Adobe Illustrator 25.3.1, SVG Export Plug-In . SVG Version: 6.00 Build 0)  -->
<svg version="1.1" id="Capa_1" xmlns="http://www.w3.org/2000/svg" xmlns:xlink="http://www.w3.org/1999/xlink" x="0px" y="0px"
	 viewBox="0 0 1920 20" style="enable-background:new 0 0 1920 20;" xml:space="preserve">
<style type="text/css">
	.st0{fill:#F7931E;}
	.st1{display:none;}
	.st2{display:inline;fill:#FE0002;}
	.st3{display:inline;}
	.st4{fill:#FFFFFF;}
	.st5{fill:#FE0002;}
	.st6{display:inline;fill:#BFD732;}
	.st7{display:inline;fill:#95D32C;stroke:#F7931E;stroke-width:1.1251;stroke-miterlimit:10;}
	.st8{display:inline;fill:#0053E2;}
	.st9{fill:#FFC220;}
</style>
<rect class="st0" width="1920" height="20"/>
<g class="st1">
	<circle class="st2" cx="1508.15" cy="6518.29" r="40.74"/>
	<g class="st3">
		<g>
			<path class="st4" d="M1530.3,6508.12c1.78,0,3.57-0.08,5.35,0.02c2.75,0.15,4.82,2.39,4.84,5.14c0.02,3.36,0.03,6.71,0,10.07
				c-0.02,2.85-2.32,5.11-5.21,5.14c-3.33,0.03-6.66,0.02-9.99,0c-2.9-0.02-5.18-2.35-5.18-5.25c0-3.29-0.01-6.59,0-9.88
				c0-2.92,2.3-5.23,5.22-5.25c1.66-0.01,3.32,0,4.98,0C1530.3,6508.1,1530.3,6508.11,1530.3,6508.12z M1526.37,6517.83
				c-0.01,3.07,2.29,5.14,4.99,4.84c1-0.11,1.87-0.52,2.59-1.22c0.37-0.36,0.39-0.9,0.08-1.25c-0.33-0.38-0.85-0.42-1.28-0.1
				c-0.1,0.08-0.19,0.16-0.29,0.24c-0.87,0.68-2.08,0.73-3.05,0.13c-0.93-0.59-1.41-1.73-1.18-2.78c0.44-1.97,2.7-2.78,4.29-1.54
				c0.16,0.13,0.34,0.26,0.53,0.33c0.39,0.13,0.83-0.07,1.02-0.43c0.2-0.39,0.13-0.86-0.22-1.15c-1.46-1.24-3.1-1.53-4.84-0.75
				C1527.29,6514.91,1526.45,6516.32,1526.37,6517.83z"/>
			<path class="st4" d="M1485.98,6508.12c1.82,0,3.65-0.07,5.46,0.02c2.53,0.12,4.7,2.42,4.73,4.95c0.03,3.47,0.03,6.94,0,10.4
				c-0.02,2.66-2.33,4.94-5.06,4.98c-3.41,0.04-6.81,0.04-10.22,0c-2.85-0.04-5.09-2.35-5.1-5.21c-0.01-3.33-0.01-6.66,0-9.99
				c0.01-2.87,2.32-5.14,5.26-5.17c1.65-0.02,3.29,0,4.94,0C1485.98,6508.1,1485.98,6508.11,1485.98,6508.12z M1488.6,6521.89
				c0.01,0.02,0.03,0.05,0.05,0.08c0.23,0.56,0.58,0.79,1.08,0.69c0.45-0.09,0.7-0.46,0.71-1.04c0-1.13,0.01-2.27,0-3.4
				c-0.04-2.83-2.63-4.93-5.36-4.35c-2.49,0.53-4.05,3.06-3.38,5.49c0.68,2.49,3.24,3.89,5.69,3.07
				C1487.79,6522.29,1488.18,6522.07,1488.6,6521.89z"/>
			<path class="st4" d="M1497.97,6518.25c0-1.78-0.08-3.57,0.02-5.35c0.14-2.71,2.43-4.8,5.13-4.81c3.32-0.01,6.64-0.01,9.95,0
				c2.97,0.01,5.25,2.32,5.26,5.28c0,3.26,0,6.51,0,9.77c0,3.05-2.3,5.33-5.36,5.33c-3.22,0-6.44,0-9.65,0
				c-3.06,0-5.35-2.27-5.37-5.33c-0.01-1.63,0-3.27,0-4.9C1497.96,6518.25,1497.97,6518.25,1497.97,6518.25z M1505.5,6514.6
				c0-0.89,0.01-1.71-0.01-2.53c-0.01-0.24-0.06-0.5-0.18-0.7c-0.21-0.34-0.63-0.46-0.99-0.34c-0.39,0.12-0.62,0.45-0.62,0.92
				c0,2.1-0.01,4.19,0,6.29c0.01,1.82,1.1,3.44,2.77,4.13c1.66,0.68,3.54,0.3,4.83-1c1.52-1.51,1.72-3.89,0.48-5.7
				c-1.18-1.73-3.53-2.37-5.46-1.49C1506.07,6514.29,1505.82,6514.43,1505.5,6514.6z"/>
		</g>
		<g>
			<path class="st5" d="M1526.37,6517.83c0.09-1.51,0.93-2.92,2.65-3.69c1.74-0.78,3.38-0.49,4.84,0.75
				c0.35,0.3,0.42,0.77,0.22,1.15c-0.19,0.35-0.63,0.56-1.02,0.43c-0.19-0.06-0.37-0.2-0.53-0.33c-1.59-1.24-3.85-0.44-4.29,1.54
				c-0.23,1.05,0.25,2.19,1.18,2.78c0.96,0.61,2.18,0.56,3.05-0.13c0.1-0.08,0.19-0.16,0.29-0.24c0.42-0.32,0.95-0.27,1.28,0.1
				c0.31,0.35,0.29,0.89-0.08,1.25c-0.72,0.71-1.59,1.11-2.59,1.22C1528.65,6522.97,1526.36,6520.9,1526.37,6517.83z"/>
			<path class="st5" d="M1490.43,6518.22c-0.04-2.83-2.63-4.93-5.36-4.35c-2.49,0.53-4.05,3.06-3.38,5.49
				c0.68,2.49,3.24,3.89,5.69,3.07c0.42-0.14,0.81-0.36,1.23-0.54c0.01,0.02,0.03,0.05,0.05,0.08c0.23,0.56,0.58,0.79,1.08,0.69
				c0.45-0.09,0.7-0.46,0.71-1.04C1490.43,6520.48,1490.44,6519.35,1490.43,6518.22z M1486,6520.86c-1.49-0.01-2.67-1.19-2.66-2.66
				c0.01-1.45,1.2-2.63,2.66-2.62c1.46,0.01,2.63,1.2,2.63,2.66C1488.62,6519.67,1487.42,6520.87,1486,6520.86z"/>
			<path class="st4" d="M1486,6515.58c-1.46-0.01-2.66,1.16-2.66,2.62c-0.01,1.47,1.17,2.65,2.66,2.66
				c1.42,0.01,2.62-1.19,2.63-2.62C1488.63,6516.78,1487.46,6515.59,1486,6515.58z"/>
			<path class="st5" d="M1511.78,6515.66c-1.18-1.73-3.53-2.37-5.46-1.49c-0.26,0.12-0.51,0.26-0.83,0.42
				c0-0.89,0.01-1.71-0.01-2.53c-0.01-0.24-0.06-0.5-0.18-0.7c-0.21-0.34-0.63-0.46-0.99-0.34c-0.39,0.12-0.62,0.45-0.62,0.92
				c0,2.1-0.01,4.19,0,6.29c0.01,1.82,1.1,3.44,2.77,4.13c1.66,0.68,3.54,0.3,4.83-1
				C1512.82,6519.85,1513.02,6517.47,1511.78,6515.66z M1508.13,6520.87c-1.47,0-2.63-1.17-2.63-2.64c0-1.47,1.17-2.64,2.63-2.64
				c1.49,0,2.66,1.17,2.65,2.66C1510.78,6519.71,1509.61,6520.87,1508.13,6520.87z"/>
			<path class="st4" d="M1508.13,6515.59c-1.46,0-2.62,1.17-2.63,2.64c0,1.46,1.16,2.63,2.63,2.64c1.47,0,2.65-1.16,2.65-2.62
				C1510.79,6516.76,1509.62,6515.59,1508.13,6515.59z"/>
		</g>
	</g>
</g>
<g class="st1">
	<circle class="st6" cx="1202.96" cy="6517.86" r="40.43"/>
	<g class="st3">
		<path class="st4" d="M1191.62,6522.62c-0.61-0.11-0.68-0.47-0.51-1.46c0.19-1.18,2.73-13.61,2.73-13.61l-1.56-0.02
			c0,0-2.49,12.27-2.71,13.45c-0.33,1.87,0.63,2.13,1.14,2.22c0.95,0.15,1.58,0,1.58,0l0.1-0.62
			C1192.4,6522.6,1192.04,6522.71,1191.62,6522.62 M1223.18,6507.84l-1.56-0.02c0,0-2.49,12.27-2.71,13.45
			c-0.34,1.87,0.63,2.13,1.14,2.22c0.95,0.15,1.58,0,1.58,0l0.1-0.62c0,0-0.35,0.11-0.78,0.04c-0.61-0.11-0.68-0.47-0.51-1.46
			C1220.64,6520.28,1223.18,6507.84,1223.18,6507.84 M1198.81,6520.03c-0.19,0.62-0.96,2.79-2.7,2.77
			c-2.08-0.02-1.04-3.17-0.87-3.77c0.17-0.61,0.95-2.84,2.63-2.83C1199.91,6516.22,1198.99,6519.41,1198.81,6520.03
			 M1199.59,6516.48l-0.05,0c-0.41-0.78-1.17-1.03-1.95-1.03c-2.36-0.02-3.74,1.92-4.15,3.8c-0.59,2.69,0.19,4.23,2.43,4.26
			c0.97,0.01,1.7-0.23,2.66-1.1l0.41,0.88l0.97,0.01l1.52-7.57l-1.67-0.02L1199.59,6516.48z M1207.9,6520.13
			c-0.17,0.62-0.95,2.79-2.51,2.78c-1.87-0.02-1.22-3.18-1.06-3.77c0.26-0.98,0.83-2.77,2.38-2.76
			C1208.83,6516.39,1208.07,6519.5,1207.9,6520.13 M1207.35,6515.54c-0.92-0.01-2.13,0.52-2.64,1.22l1.85-9.14l-1.56-0.02
			c0,0-2.51,12.66-3.21,15.7l0.98,0.01l0.56-0.87c0.57,0.88,1.2,1.13,2.17,1.14c2.23,0.02,3.71-1.5,4.31-4.19
			C1210.21,6517.53,1209.71,6515.56,1207.35,6515.54 M1186.1,6519.9c-0.19,0.62-0.96,2.79-2.7,2.77c-2.08-0.02-1.04-3.17-0.87-3.77
			c0.17-0.61,0.95-2.84,2.63-2.83C1187.21,6516.1,1186.29,6519.29,1186.1,6519.9 M1186.88,6516.35l-0.05,0
			c-0.41-0.78-1.16-1.03-1.95-1.03c-2.36-0.02-3.74,1.92-4.15,3.8c-0.59,2.69,0.19,4.23,2.43,4.26c0.97,0.01,1.7-0.23,2.66-1.1
			l0.41,0.88l0.97,0.01l1.52-7.57l-1.67-0.02L1186.88,6516.35z M1216.49,6519.09l-3.97-0.04c0.28-1.01,1.13-2.62,2.59-2.6
			C1216.7,6516.48,1216.73,6518.08,1216.49,6519.09 M1215.27,6515.64c-2.08-0.02-3.95,1.37-4.41,3.58c-0.77,3.73,2,4.48,3.17,4.49
			c1,0.01,1.8-0.33,2.4-0.77l-0.52-0.62c-0.42,0.25-0.92,0.44-1.47,0.43c-1.93-0.02-2.2-1.67-2.08-2.82l5.56,0.05
			C1218.51,6518.11,1217.93,6515.66,1215.27,6515.64 M1225.23,6522.95c-0.61-0.11-0.67-0.47-0.51-1.46
			c0.19-1.18,2.73-13.61,2.73-13.61l-1.56-0.02c0,0-2.49,12.27-2.71,13.45c-0.34,1.87,0.63,2.13,1.14,2.22c0.95,0.15,1.58,0,1.58,0
			l0.1-0.62C1226.01,6522.93,1225.66,6523.04,1225.23,6522.95 M1232.43,6520.36c-0.19,0.62-0.96,2.79-2.7,2.77
			c-2.08-0.02-1.03-3.17-0.87-3.77c0.17-0.61,0.95-2.84,2.62-2.83C1233.54,6516.55,1232.62,6519.74,1232.43,6520.36
			 M1233.38,6516.03l-0.17,0.79l-0.05,0c-0.41-0.78-1.17-1.03-1.95-1.03c-2.36-0.02-3.74,1.92-4.15,3.8
			c-0.59,2.69,0.19,4.23,2.43,4.26c0.97,0.01,1.7-0.23,2.66-1.1l0.41,0.88l0.97,0.01l1.52-7.57l-1.67-0.02L1233.38,6516.03z
			 M1180.71,6514.98l-2.92-0.03l1.23-6.11c0.38-1.85,0.6-2.65,1.19-3.31c0.31-0.37,0.58-0.58,1.03-0.71
			c0.34-0.09,0.91,0.01,0.91,0.01l0.08-0.64c-0.26-0.05-0.67-0.05-0.67-0.05c-1.05,0-2.05,0.47-2.8,1.34
			c-1.11,1.22-1.43,2.71-1.76,4.43l-1.01,5.02l-2.84-0.03l-0.19,0.81l2.86,0.03l-2.12,10.61c-0.39,1.85-0.53,2.33-1.08,3.14
			c-0.35,0.51-0.72,0.75-1.31,0.84c-0.1,0.01-0.22,0.02-0.33,0.01l-0.2,0.69l0.36,0.01c1.06,0.01,2.06-0.47,2.82-1.33
			c1.12-1.24,1.43-2.73,1.78-4.45l1.91-9.53l2.9,0.03L1180.71,6514.98z"/>
	</g>
</g>
<g class="st1">
	<circle class="st7" cx="1812.78" cy="6518.29" r="40.39"/>
	<g class="st3">
		<path class="st4" d="M1810.43,6513.89c-0.53-1.15-2.5-0.16-1.94,0.86c0.82,1.5,4.63,10.28,5.23,11.44c0.55,1.06,1.23,1.03,1.79,0
			c0.6-1.08,3.77-8.75,5.05-11.55c0.57-1.26-1.17-1.68-1.64-0.45c-0.71,1.83-3.43,9-3.7,9.46c-0.26,0.45-0.56,0.67-0.93,0.11
			C1813.99,6523.32,1810.91,6514.93,1810.43,6513.89z"/>
		<path class="st4" d="M1837.65,6525.7c-0.06,1.32-2.12,1.5-2.19,0.15c-0.04-0.77,0.04-7.36,0.07-9.47
			c0.03-1.41,2.03-2.34,2.85-2.49c0.82-0.15,3.74-0.06,4.97,0c1.46,0.07,1.2,2.09,0.3,2.09s-3.77-0.15-4.78,0.07
			c-0.47,0.11-1.05,0.62-1.1,1.44C1837.69,6518.87,1837.7,6524.55,1837.65,6525.7z"/>
		<path class="st4" d="M1792.23,6511.68c0.04-1.29,1.83-1.34,1.91,0c0.11,1.91,0.52,11.66-0.34,14.35c-0.47,1.46-2.32,3.77-3.29,4.3
			c-1.11,0.6-3.14,0.93-4.26,0.37c-0.98-0.49-2.77-2.16-2.95-3.33c-0.22-1.46-0.41-2.95-0.11-4.52c0.2-1.04,1.65-0.81,1.61-0.04
			c-0.04,0.75-0.15,2.32,0.07,3.44c0.16,0.8,1.21,2.22,1.76,2.62c0.67,0.49,2.71,0.1,3.4-0.34c0.41-0.26,1.81-2.2,2.06-3.14
			C1792.6,6523.42,1792.15,6514.33,1792.23,6511.68z"/>
		<path class="st4" d="M1808.48,6525.85c-0.07-0.8-0.04-6.62-0.19-7.74c-0.26-2.02-2.31-3.98-3.77-4.45
			c-2.32-0.75-3.49-0.9-5.38-0.07c-1.79,0.79-2.85,1.75-3.51,3.51c-0.64,1.68-0.78,2.84-0.3,4.82c0.52,2.12,1.94,3.65,3.85,4.07
			c1.68,0.37,2.73,0.6,4.56,0.15c1.99-0.49,2.84-1.72,2.84-1.72s0.02,1.43,0.07,1.94
			C1806.76,6527.34,1808.56,6526.74,1808.48,6525.85z M1801.56,6524.87c-2.78,0-5.04-2.24-5.04-5c0-2.76,2.26-5,5.04-5
			s5.04,2.24,5.04,5C1806.6,6522.64,1804.35,6524.87,1801.56,6524.87z"/>
		<path class="st4" d="M1833.63,6520.31c0,0,0.11-5-4.3-6.35c-1.46-0.45-3.54-0.28-4.56,0.15c-1.49,0.64-3.3,2.79-3.66,4.45
			c-0.37,1.72-0.19,3.19,0.52,4.71c0.52,1.12,1.16,1.91,2.8,2.95c1.58,1.01,4.75,0.76,6.24-0.37c1.16-0.88,1.96-2,2.58-2.84
			c0.64-0.88-0.28-2.18-1.09-1.19c-0.56,0.69-0.99,1.3-2.26,2.27c-1.35,1.04-3.22,1.12-4.57,0.56c-0.57-0.24-1.71-0.94-2.15-1.89
			c-0.49-1.06-0.24-2.37-0.24-2.37L1833.63,6520.31z M1825.52,6515.6c0.9-0.51,3.39-0.36,4.07,0.11c1.79,1.23,1.87,3.36,1.87,3.36
			h-8.48C1822.98,6519.08,1823.21,6516.91,1825.52,6515.6z"/>
	</g>
</g>
<g class="st1">
	<path class="st8" d="M858.03,4099.19c0-22.44,18.21-40.65,40.65-40.65s40.65,18.21,40.65,40.65c0,22.44-18.21,40.65-40.65,40.65
		S858.03,4121.64,858.03,4099.19"/>
	<g id="g14_15_" transform="matrix(0.34488752,0,0,0.34488752,242.1519,327.89158)" class="st3">
		<path id="path2_15_" class="st9" d="M1984.78,10935.85c1.32-0.27,12.98-5.61,14.02-6.21c2.38-1.37,3.19-4.41,1.82-6.79
			c-1.37-2.38-4.41-3.19-6.79-1.82c-1.04,0.6-11.5,8.03-12.39,9.03c-1.02,1.15-1.2,2.8-0.44,4.11
			C1981.76,10935.49,1983.27,10936.16,1984.78,10935.85L1984.78,10935.85z"/>
		<path id="path4_15_" class="st9" d="M1998.8,10947.68c-1.04-0.6-12.7-5.94-14.02-6.21c-1.51-0.31-3.03,0.36-3.78,1.67
			c-0.76,1.31-0.58,2.96,0.44,4.11c0.89,1.01,11.35,8.43,12.39,9.03c2.38,1.37,5.41,0.56,6.79-1.82
			C2001.99,10952.09,2001.17,10949.05,1998.8,10947.68z"/>
		<path id="path6_15_" class="st9" d="M1973.24,10947.62c-1.52,0-2.85,0.98-3.34,2.44c-0.42,1.28-1.63,14.04-1.63,15.25
			c0,2.74,2.22,4.97,4.97,4.97c2.74,0,4.97-2.22,4.97-4.97c0-1.2-1.2-13.97-1.63-15.25
			C1976.09,10948.59,1974.76,10947.62,1973.24,10947.62L1973.24,10947.62z"/>
		<path id="path8_15_" class="st9" d="M1961.7,10941.46c-1.32,0.27-12.98,5.61-14.02,6.21c-2.38,1.37-3.19,4.41-1.82,6.79
			s4.41,3.19,6.79,1.82c1.04-0.6,11.5-8.03,12.39-9.03c1.02-1.15,1.2-2.8,0.44-4.11
			C1964.72,10941.82,1963.21,10941.15,1961.7,10941.46L1961.7,10941.46z"/>
		<path id="path10_15_" class="st9" d="M1952.65,10921.03c-2.38-1.37-5.41-0.56-6.79,1.82c-1.37,2.38-0.56,5.41,1.82,6.79
			c1.04,0.6,12.7,5.94,14.02,6.21c1.51,0.31,3.03-0.36,3.78-1.67c0.76-1.31,0.58-2.96-0.44-4.11
			C1964.14,10929.06,1953.69,10921.63,1952.65,10921.03z"/>
		<path id="path12_15_" class="st9" d="M1973.24,10907.04c-2.74,0-4.97,2.22-4.97,4.97c0,1.2,1.2,13.97,1.63,15.25
			c0.49,1.46,1.82,2.44,3.34,2.44c1.52,0,2.85-0.98,3.34-2.44c0.42-1.28,1.63-14.04,1.63-15.25
			C1978.21,10909.27,1975.98,10907.04,1973.24,10907.04z"/>
	</g>
	<g id="g70_15_" transform="matrix(4.4093677,0,0,4.4093677,-528.63986,1132.4594)" class="st3">
		<g id="g12_15_">
		</g>
		<g id="g68_15_">
			<g id="g60_15_">
				<path id="path34-7_15_" class="st4" d="M318.33,671.66c0,0-0.29,1.03-0.49,1.83l-0.09,0.31c-0.04,0.16,0.07,0.16,0.07,0.16h0.56
					l-0.13,0.51h-0.63l0,0c0,0-0.29,0.02-0.42-0.13c-0.13-0.16-0.11-0.31-0.09-0.4c0-0.07,0.27-1.07,0.27-1.07l0.34-1.21H318.33z"/>
				<path id="path36-1_15_" class="st4" d="M322.31,671.66l-0.45,1.85c-0.27,0.96-1.25,0.98-1.25,0.98
					c-0.56,0.04-1.03-0.18-1.07-0.67c-0.11-1.03,1.01-1.68,1.97-1.27c0.07-0.29,0.18-0.56,0.22-0.87h0.58V671.66z M320.28,673.16
					c-0.11,0.18-0.2,0.51-0.07,0.74c0.13,0.25,0.58,0.25,0.8,0.07c0.22-0.18,0.31-0.69,0.4-1.03
					C321.02,672.65,320.48,672.85,320.28,673.16"/>
				<path id="path38-1_15_" class="st4" d="M322.65,673.59c-0.11,0.67,0.89,0.56,1.23,0.31c-0.04,0.16-0.04,0.34-0.07,0.49
					c-0.78,0.25-1.68,0.07-1.74-0.63c-0.09-0.85,0.6-1.3,1.34-1.34c0.42-0.02,0.89,0.04,1.03,0.34c0.07,0.18,0.02,0.42-0.09,0.54
					C324.01,673.63,323.23,673.72,322.65,673.59 M323.23,673.27c0.25-0.02,0.69-0.11,0.6-0.34c-0.04-0.13-0.34-0.18-0.51-0.13
					c-0.27,0.04-0.47,0.25-0.58,0.42C322.89,673.27,323.05,673.27,323.23,673.27"/>
				<path id="path40-5_15_" class="st4" d="M326.31,672.45c0,0-0.16,0.45-0.16,0.47c-0.16-0.04-0.22-0.13-0.45-0.11
					c-0.56,0.07-0.69,0.78-0.8,1.34l-0.04,0.34h-0.6c0.16-0.67,0.31-1.39,0.49-2.06c0.18,0,0.4,0,0.58,0l-0.02,0.16
					C325.53,672.45,325.93,672.36,326.31,672.45"/>
				<path id="path42-2_15_" class="st4" d="M319.59,672.45c-0.16,0.67-0.34,1.36-0.47,2.03h-0.6c0.13-0.54,0.25-1.07,0.38-1.61
					h-0.31l0.11-0.42H319.59z"/>
				<path id="path44-7_15_" class="st4" d="M319.7,671.93c0,0.2-0.18,0.29-0.38,0.29s-0.38-0.13-0.38-0.29
					c0-0.16,0.18-0.29,0.38-0.29C319.54,671.64,319.7,671.78,319.7,671.93"/>
			</g>
		</g>
	</g>
</g>
<g class="st1">
	<path class="st8" d="M1773.35,4099.02c0-22.36,18.14-40.5,40.5-40.5c22.36,0,40.5,18.14,40.5,40.5s-18.14,40.5-40.5,40.5
		C1791.49,4139.52,1773.35,4121.38,1773.35,4099.02"/>
	<g id="g14_14_" transform="matrix(0.34488752,0,0,0.34488752,242.1519,327.89158)" class="st3">
		<path id="path2_14_" class="st9" d="M4638.02,10935.34c1.31-0.27,12.93-5.59,13.97-6.19c2.37-1.37,3.18-4.39,1.81-6.76
			s-4.39-3.18-6.76-1.81c-1.04,0.6-11.45,8-12.34,9c-1.02,1.15-1.2,2.79-0.44,4.1
			C4635.01,10934.98,4636.52,10935.65,4638.02,10935.34L4638.02,10935.34z"/>
		<path id="path4_14_" class="st9" d="M4651.99,10947.13c-1.04-0.6-12.65-5.92-13.97-6.19c-1.5-0.31-3.02,0.36-3.77,1.67
			c-0.76,1.31-0.58,2.95,0.44,4.1c0.89,1,11.31,8.4,12.34,9c2.37,1.37,5.39,0.56,6.76-1.81
			C4655.17,10951.52,4654.35,10948.49,4651.99,10947.13z"/>
		<path id="path6_14_" class="st9" d="M4626.52,10947.06c-1.51,0-2.84,0.97-3.33,2.43c-0.42,1.27-1.62,13.99-1.62,15.19
			c0,2.73,2.22,4.95,4.95,4.95s4.95-2.21,4.95-4.95c0-1.2-1.2-13.92-1.62-15.19C4629.37,10948.04,4628.03,10947.06,4626.52,10947.06
			L4626.52,10947.06z"/>
		<path id="path8_14_" class="st9" d="M4615.02,10940.94c-1.31,0.27-12.93,5.59-13.97,6.19c-2.37,1.37-3.18,4.39-1.81,6.76
			c1.37,2.37,4.39,3.18,6.76,1.81c1.04-0.6,11.45-8,12.34-9c1.02-1.15,1.2-2.79,0.44-4.1S4616.53,10940.63,4615.02,10940.94
			L4615.02,10940.94z"/>
		<path id="path10_14_" class="st9" d="M4606.01,10920.58c-2.37-1.37-5.39-0.56-6.76,1.81c-1.37,2.37-0.56,5.39,1.81,6.76
			c1.04,0.6,12.65,5.92,13.97,6.19c1.5,0.31,3.02-0.36,3.77-1.67s0.58-2.95-0.44-4.1
			C4617.46,10928.58,4607.04,10921.18,4606.01,10920.58z"/>
		<path id="path12_14_" class="st9" d="M4626.52,10906.64c-2.73,0-4.95,2.22-4.95,4.95c0,1.2,1.2,13.92,1.62,15.19
			c0.48,1.46,1.82,2.43,3.33,2.43s2.84-0.97,3.33-2.43c0.42-1.27,1.62-13.99,1.62-15.19
			C4631.47,10908.86,4629.25,10906.64,4626.52,10906.64z"/>
	</g>
	<g id="g70_14_" transform="matrix(4.4093677,0,0,4.4093677,-528.63986,1132.4594)" class="st3">
		<g id="g12_14_">
		</g>
		<g id="g68_14_">
			<g id="g60_14_">
				<path id="path34-7_14_" class="st4" d="M525.91,671.63c0,0-0.29,1.02-0.49,1.83l-0.09,0.31c-0.04,0.16,0.07,0.16,0.07,0.16h0.56
					l-0.13,0.51h-0.62l0,0c0,0-0.29,0.02-0.42-0.13c-0.13-0.16-0.11-0.31-0.09-0.4c0-0.07,0.27-1.07,0.27-1.07l0.33-1.2H525.91z"/>
				<path id="path36-1_14_" class="st4" d="M529.87,671.63l-0.45,1.85c-0.27,0.96-1.25,0.98-1.25,0.98
					c-0.56,0.04-1.02-0.18-1.07-0.67c-0.11-1.02,1-1.67,1.96-1.27c0.07-0.29,0.18-0.56,0.22-0.87h0.58V671.63z M527.84,673.12
					c-0.11,0.18-0.2,0.51-0.07,0.73c0.13,0.24,0.58,0.24,0.8,0.07s0.31-0.69,0.4-1.02C528.58,672.61,528.04,672.81,527.84,673.12"/>
				<path id="path38-1_14_" class="st4" d="M530.2,673.54c-0.11,0.67,0.89,0.56,1.22,0.31c-0.04,0.16-0.04,0.33-0.07,0.49
					c-0.78,0.24-1.67,0.07-1.74-0.62c-0.09-0.85,0.6-1.29,1.34-1.34c0.42-0.02,0.89,0.04,1.02,0.33c0.07,0.18,0.02,0.42-0.09,0.53
					C531.56,673.59,530.78,673.68,530.2,673.54 M530.78,673.23c0.24-0.02,0.69-0.11,0.6-0.33c-0.04-0.13-0.33-0.18-0.51-0.13
					c-0.27,0.04-0.47,0.24-0.58,0.42C530.45,673.23,530.6,673.23,530.78,673.23"/>
				<path id="path40-5_14_" class="st4" d="M533.85,672.41c0,0-0.16,0.45-0.16,0.47c-0.16-0.04-0.22-0.13-0.45-0.11
					c-0.56,0.07-0.69,0.78-0.8,1.34l-0.04,0.33h-0.6c0.16-0.67,0.31-1.38,0.49-2.05c0.18,0,0.4,0,0.58,0l-0.02,0.16
					C533.07,672.41,533.47,672.32,533.85,672.41"/>
				<path id="path42-2_14_" class="st4" d="M527.15,672.41c-0.16,0.67-0.33,1.36-0.47,2.03h-0.6c0.13-0.53,0.24-1.07,0.38-1.6h-0.31
					l0.11-0.42H527.15z"/>
				<path id="path44-7_14_" class="st4" d="M527.26,671.9c0,0.2-0.18,0.29-0.38,0.29c-0.2,0-0.38-0.13-0.38-0.29
					s0.18-0.29,0.38-0.29C527.11,671.61,527.26,671.74,527.26,671.9"/>
			</g>
		</g>
	</g>
</g>
</svg>
