<?xml version="1.0" encoding="utf-8"?>
<!-- Generator: Adobe Illustrator 25.3.1, SVG Export Plug-In . SVG Version: 6.00 Build 0)  -->
<svg version="1.1" id="Capa_1" xmlns="http://www.w3.org/2000/svg" xmlns:xlink="http://www.w3.org/1999/xlink" x="0px" y="0px"
	 viewBox="0 0 60 55" style="enable-background:new 0 0 60 55;" xml:space="preserve">
<style type="text/css">
	.st0{fill:#FFFFFF;}
	.st1{fill:#F7931E;}
	.st2{fill:none;}
	.st3{display:none;}
	.st4{display:inline;fill:#FE0002;}
	.st5{display:inline;}
	.st6{fill:#FE0002;}
	.st7{display:inline;fill:#BFD732;}
	.st8{display:inline;fill:#95D32C;stroke:#F7931E;stroke-width:1.1251;stroke-miterlimit:10;}
	.st9{display:inline;fill:#0053E2;}
	.st10{fill:#FFC220;}
</style>
<g>
	<circle class="st0" cx="129.05" cy="-106.94" r="23.95"/>
	<g>
		<path class="st1" d="M137.88-113.58c-0.33-1.73-1.36-2.09-2.17-2.09l-0.15,0.02c-1.44,0.45-1.74,1.42-1.74,2.16l0.04,0.2
			c0.5,1.12,1.17,1.69,2,1.69c0.84,0,1.51-0.57,1.98-1.69l0.06-0.14L137.88-113.58z M134.82-113.59c0.02-0.38,0.18-0.81,0.96-1.08
			c0.41,0.02,0.87,0.19,1.09,1.13C136.27-112.27,135.43-112.29,134.82-113.59z"/>
		<path class="st1" d="M133.25-112.48l-0.04-0.03c-1.28-0.89-2.63-1.34-4.02-1.34h-0.14c-3.07,0-5.23,1.58-6.43,4.71
			c-0.15,0.24-0.31,0.75-0.46,2.33c0,3.21,1.84,5.47,5.48,6.71l3.03,0.03l0.08-0.03c3.53-1.27,5.31-3.57,5.31-6.84v-0.3
			C136.07-109.13,135.12-110.88,133.25-112.48z M132.87-107.03c-0.4,2.61-1.6,3.88-3.67,3.88c-1.65,0-2.82-0.81-3.57-2.48
			l-0.05-0.09c-0.01-0.02-0.11-0.21-0.2-1.09c0.32-2.61,1.49-3.83,3.68-3.83h0.14c1.78,0,2.94,0.94,3.55,2.86l0.05,0.11
			C132.81-107.66,132.86-107.51,132.87-107.03z"/>
		<path class="st1" d="M137.86-119.22l-1.77-0.59l-1.91-0.16h-10.13c-3.83,0-6.42,1.89-7.73,5.7c-0.19,1.1-0.28,2.44-0.28,3.98v7.24
			c0,4.13,1.35,6.93,4.01,8.33c0.65,0.37,2.16,0.82,7.56,0.82c1.02,0,2.19-0.02,3.52-0.05c6.33,0,7.87-0.94,8.42-1.68
			c1.66-1.36,2.5-3.58,2.5-6.61v-9.31C142.05-115.42,140.64-118,137.86-119.22z M138.96-111.69v9.82c-0.44,3.15-1.68,4.68-3.8,4.68
			h-4.03c-1.88,0-3.89,0.05-5.96,0.14c-3.26,0-5.11-0.97-5.63-2.9c-0.18-1.2-0.27-3.04-0.27-5.48v-3.07c0-5.66,0.51-6.11,0.62-6.44
			c0.34-1.04,2.46-1.8,4.57-1.8h9.72C137.44-116.74,138.96-115.14,138.96-111.69z"/>
	</g>
</g>
<g>
	<circle class="st0" cx="197.41" cy="-96.94" r="23.95"/>
	<g>
		<path class="st1" d="M192.48-100.14h1.46v-3.61l1.6-5.73h-1.33c-0.54,1.92-0.81,3.07-0.81,3.45H193c0-0.36-0.27-1.52-0.81-3.45
			h-1.33c1.08,3.73,1.62,5.78,1.62,6.14V-100.14z"/>
		<path class="st1" d="M195.54-104.95v2.67c0,1.6,0.63,2.4,1.88,2.4c1.24-0.15,1.86-0.76,1.86-1.86v-3.61c0-0.9-0.44-1.52-1.33-1.86
			h-1.07c-0.89,0.44-1.33,0.93-1.33,1.46C195.54-105.65,195.54-104.95,195.54-104.95z M196.87-105.61c0-0.13,0.13-0.27,0.39-0.42
			h0.28c0.35,0.13,0.52,0.53,0.52,1.2v2.82c0,0.61-0.27,0.92-0.81,0.92l-0.39-0.52V-105.61z"/>
		<path class="st1" d="M200.87-100.14h1.07c0.04,0,0.27-0.17,0.68-0.52c0.17,0,0.26,0.17,0.26,0.52h0.92c0.19,0,0.28-0.09,0.28-0.26
			v-6.54h-1.2c0,0.17,0,0.92,0,0.92v3.48c0,0.09,0,0.39,0,0.39v0.15c-0.23,0.44-0.42,0.66-0.55,0.66h-0.39
			c-0.17,0-0.26-0.09-0.26-0.26v-5.33h-1.2v6.4C200.48-100.42,200.61-100.29,200.87-100.14z"/>
		<path class="st2" d="M196.61-93.87h-0.55c-0.26,0.13-0.39,0.26-0.39,0.39v4.94c-0.04,0.19-0.26,0.36-0.66,0.52
			c-0.28,0-0.42-0.09-0.42-0.26v-5.2c0-0.2-0.26-0.34-0.79-0.39h-0.13c-0.28,0.13-0.42,0.26-0.42,0.39v6.01
			c0.25,0.52,0.6,0.79,1.07,0.79c0.09,0,0.53-0.26,1.33-0.79c0.03,0.44,0.16,0.66,0.39,0.66h0.68c0.17,0,0.26-0.09,0.26-0.26v-6.4
			C196.87-93.74,196.74-93.87,196.61-93.87z"/>
		<path class="st2" d="M193.39-95.88c-0.13-0.26-0.26-0.39-0.39-0.39h-3.87c-0.15,0-0.23,0.09-0.26,0.26v0.81
			c0.13,0.26,0.26,0.39,0.39,0.39h1.07v7.21c0,0.44,0.13,0.7,0.39,0.79h0.81c0.17,0,0.26-0.09,0.26-0.26v-7.74h1.2
			c0.26-0.07,0.39-0.34,0.39-0.79V-95.88z"/>
		<path class="st2" d="M200.74-93.87h-0.39l-0.68,0.52h-0.13v-2.54c-0.13-0.26-0.26-0.39-0.39-0.39h-0.68
			c-0.15,0-0.23,0.09-0.26,0.26v8.81c0.15,0.26,0.28,0.39,0.39,0.39h0.55l0.52-0.39c0.51,0.35,0.91,0.52,1.2,0.52
			c0.63,0,0.98-0.49,1.07-1.46v-3.87C201.94-93.25,201.54-93.87,200.74-93.87z M200.61-88.14c0,0.19-0.09,0.28-0.26,0.28h-0.42
			c-0.26-0.15-0.39-0.28-0.39-0.42v-4.13c0-0.15,0.09-0.23,0.26-0.26h0.68l0.13,0.66V-88.14z"/>
		<path class="st2" d="M205-94c-1.41,0-2.12,0.89-2.12,2.67l0.13,0.79l-0.13,0.94c0,1.95,0.53,2.93,1.6,2.93h0.68
			c0.86,0,1.39-0.66,1.6-1.99v-0.26c-0.15-0.28-0.28-0.42-0.42-0.42h-0.79c-0.13,0.99-0.31,1.49-0.55,1.49l-0.66-0.15v-0.26
			c0-0.36-0.04-0.85-0.13-1.46c0.09-0.17,0.13-0.31,0.13-0.39h1.99c0.28-0.15,0.42-0.28,0.42-0.42v-1.46
			C206.57-93.34,205.99-94,205-94z M205.42-91.47l-0.13,0.26c-0.1,0-0.24-0.04-0.42-0.13c-0.09,0-0.22,0.04-0.39,0.13
			c0-0.09-0.04-0.13-0.13-0.13c0-0.89,0.09-1.33,0.26-1.33H205c0.28,0.07,0.42,0.34,0.42,0.79V-91.47z"/>
		<path class="st1" d="M199.8-92.67c-0.17,0.03-0.26,0.12-0.26,0.26v4.13c0,0.13,0.13,0.27,0.39,0.42h0.42
			c0.17,0,0.26-0.09,0.26-0.28v-3.87l-0.13-0.66H199.8z"/>
		<path class="st1" d="M203.54-98.42h-12.26c-3.29,0-4.94,1.78-4.94,5.35v3.19c0,3.64,1.73,5.46,5.2,5.46h11.47
			c3.64,0,5.46-1.6,5.46-4.79v-4.15C208.48-96.73,206.83-98.42,203.54-98.42z M193-94.81h-1.2v7.74c0,0.17-0.09,0.26-0.26,0.26
			h-0.81c-0.26-0.09-0.39-0.35-0.39-0.79v-7.21h-1.07c-0.13,0-0.26-0.13-0.39-0.39v-0.81c0.03-0.17,0.12-0.26,0.26-0.26H193
			c0.13,0,0.26,0.13,0.39,0.39v0.28C193.39-95.14,193.26-94.88,193-94.81z M197-87.07c0,0.17-0.09,0.26-0.26,0.26h-0.68
			c-0.23,0-0.36-0.22-0.39-0.66c-0.8,0.52-1.25,0.79-1.33,0.79c-0.47,0-0.82-0.26-1.07-0.79v-6.01c0-0.13,0.14-0.26,0.42-0.39h0.13
			c0.52,0.06,0.79,0.19,0.79,0.39v5.2c0,0.17,0.14,0.26,0.42,0.26c0.39-0.16,0.61-0.34,0.66-0.52v-4.94c0-0.13,0.13-0.26,0.39-0.39
			h0.55c0.13,0,0.26,0.13,0.39,0.39V-87.07z M201.94-88.14c-0.09,0.98-0.44,1.46-1.07,1.46c-0.29,0-0.69-0.17-1.2-0.52l-0.52,0.39
			h-0.55c-0.12,0-0.25-0.13-0.39-0.39v-8.81c0.03-0.17,0.12-0.26,0.26-0.26h0.68c0.13,0,0.26,0.13,0.39,0.39v2.54h0.13l0.68-0.52
			h0.39c0.8,0,1.2,0.62,1.2,1.86V-88.14z M206.75-90.55c0,0.13-0.14,0.27-0.42,0.42h-1.99c0,0.04-0.01,0.09-0.03,0.14
			c-0.02,0.07-0.06,0.15-0.1,0.25c0.01,0.06,0.02,0.11,0.02,0.17c0.07,0.54,0.11,0.97,0.11,1.3v0.26l0.17,0.04l0.49,0.11
			c0.23,0,0.42-0.5,0.55-1.49h0.79c0.13,0,0.27,0.14,0.42,0.42v0.26c-0.2,1.33-0.74,1.99-1.6,1.99h-0.68c-1.06,0-1.6-0.98-1.6-2.93
			v-1.73c0-1.78,0.71-2.67,2.12-2.67c0.99,0,1.57,0.66,1.75,1.99V-90.55z"/>
		<path class="st1" d="M205-92.67h-0.39c-0.17,0-0.26,0.44-0.26,1.33c0.09,0,0.08,0.15,0.17,0.15c0.18,0.09,0.67-0.02,0.77-0.02
			l0.13-0.26v-0.42C205.42-92.33,205.28-92.59,205-92.67z"/>
	</g>
</g>
<g class="st3">
	<circle class="st4" cx="432.15" cy="6588.29" r="40.74"/>
	<g class="st5">
		<g>
			<path class="st0" d="M454.3,6578.12c1.78,0,3.57-0.08,5.35,0.02c2.75,0.15,4.82,2.39,4.84,5.14c0.02,3.36,0.03,6.71,0,10.07
				c-0.02,2.85-2.32,5.11-5.21,5.14c-3.33,0.03-6.66,0.02-9.99,0c-2.9-0.02-5.18-2.35-5.18-5.25c0-3.29-0.01-6.59,0-9.88
				c0-2.92,2.3-5.23,5.22-5.25c1.66-0.01,3.32,0,4.98,0C454.3,6578.1,454.3,6578.11,454.3,6578.12z M450.37,6587.83
				c-0.01,3.07,2.29,5.14,4.99,4.84c1-0.11,1.87-0.52,2.59-1.22c0.37-0.36,0.39-0.9,0.08-1.25c-0.33-0.38-0.85-0.42-1.28-0.1
				c-0.1,0.08-0.19,0.16-0.29,0.24c-0.87,0.68-2.08,0.73-3.05,0.13c-0.93-0.59-1.41-1.73-1.18-2.78c0.44-1.97,2.7-2.78,4.29-1.54
				c0.16,0.13,0.34,0.26,0.53,0.33c0.39,0.13,0.83-0.07,1.02-0.43c0.2-0.39,0.13-0.86-0.22-1.15c-1.46-1.24-3.1-1.53-4.84-0.75
				C451.29,6584.91,450.45,6586.32,450.37,6587.83z"/>
			<path class="st0" d="M409.98,6578.12c1.82,0,3.65-0.07,5.46,0.02c2.53,0.12,4.7,2.42,4.73,4.95c0.03,3.47,0.03,6.94,0,10.4
				c-0.02,2.66-2.33,4.94-5.06,4.98c-3.41,0.04-6.81,0.04-10.22,0c-2.85-0.04-5.09-2.35-5.1-5.21c-0.01-3.33-0.01-6.66,0-9.99
				c0.01-2.87,2.32-5.14,5.26-5.17c1.65-0.02,3.29,0,4.94,0C409.98,6578.1,409.98,6578.11,409.98,6578.12z M412.6,6591.89
				c0.01,0.02,0.03,0.05,0.05,0.08c0.23,0.56,0.58,0.79,1.08,0.69c0.45-0.09,0.7-0.46,0.71-1.04c0-1.13,0.01-2.27,0-3.4
				c-0.04-2.83-2.63-4.93-5.36-4.35c-2.49,0.53-4.05,3.06-3.38,5.49c0.68,2.49,3.24,3.89,5.69,3.07
				C411.79,6592.29,412.18,6592.07,412.6,6591.89z"/>
			<path class="st0" d="M421.97,6588.25c0-1.78-0.08-3.57,0.02-5.35c0.14-2.71,2.43-4.8,5.13-4.81c3.32-0.01,6.64-0.01,9.95,0
				c2.97,0.01,5.25,2.32,5.26,5.28c0,3.26,0,6.51,0,9.77c0,3.05-2.3,5.33-5.36,5.33c-3.22,0-6.44,0-9.65,0
				c-3.06,0-5.35-2.27-5.37-5.33c-0.01-1.63,0-3.27,0-4.9C421.96,6588.25,421.97,6588.25,421.97,6588.25z M429.5,6584.6
				c0-0.89,0.01-1.71-0.01-2.53c-0.01-0.24-0.06-0.5-0.18-0.7c-0.21-0.34-0.63-0.46-0.99-0.34c-0.39,0.12-0.62,0.45-0.62,0.92
				c0,2.1-0.01,4.19,0,6.29c0.01,1.82,1.1,3.44,2.77,4.13c1.66,0.68,3.54,0.3,4.83-1c1.52-1.51,1.72-3.89,0.48-5.7
				c-1.18-1.73-3.53-2.37-5.46-1.49C430.07,6584.29,429.82,6584.43,429.5,6584.6z"/>
		</g>
		<g>
			<path class="st6" d="M450.37,6587.83c0.09-1.51,0.93-2.92,2.65-3.69c1.74-0.78,3.38-0.49,4.84,0.75c0.35,0.3,0.42,0.77,0.22,1.15
				c-0.19,0.35-0.63,0.56-1.02,0.43c-0.19-0.06-0.37-0.2-0.53-0.33c-1.59-1.24-3.85-0.44-4.29,1.54c-0.23,1.05,0.25,2.19,1.18,2.78
				c0.96,0.61,2.18,0.56,3.05-0.13c0.1-0.08,0.19-0.16,0.29-0.24c0.42-0.32,0.95-0.27,1.28,0.1c0.31,0.35,0.29,0.89-0.08,1.25
				c-0.72,0.71-1.59,1.11-2.59,1.22C452.65,6592.97,450.36,6590.9,450.37,6587.83z"/>
			<path class="st6" d="M414.43,6588.22c-0.04-2.83-2.63-4.93-5.36-4.35c-2.49,0.53-4.05,3.06-3.38,5.49
				c0.68,2.49,3.24,3.89,5.69,3.07c0.42-0.14,0.81-0.36,1.23-0.54c0.01,0.02,0.03,0.05,0.05,0.08c0.23,0.56,0.58,0.79,1.08,0.69
				c0.45-0.09,0.7-0.46,0.71-1.04C414.43,6590.48,414.44,6589.35,414.43,6588.22z M410,6590.86c-1.49-0.01-2.67-1.19-2.66-2.66
				c0.01-1.45,1.2-2.63,2.66-2.62c1.46,0.01,2.63,1.2,2.63,2.66C412.62,6589.67,411.42,6590.87,410,6590.86z"/>
			<path class="st0" d="M410,6585.58c-1.46-0.01-2.66,1.16-2.66,2.62c-0.01,1.47,1.17,2.65,2.66,2.66c1.42,0.01,2.62-1.19,2.63-2.62
				C412.63,6586.78,411.46,6585.59,410,6585.58z"/>
			<path class="st6" d="M435.78,6585.66c-1.18-1.73-3.53-2.37-5.46-1.49c-0.26,0.12-0.51,0.26-0.83,0.42c0-0.89,0.01-1.71-0.01-2.53
				c-0.01-0.24-0.06-0.5-0.18-0.7c-0.21-0.34-0.63-0.46-0.99-0.34c-0.39,0.12-0.62,0.45-0.62,0.92c0,2.1-0.01,4.19,0,6.29
				c0.01,1.82,1.1,3.44,2.77,4.13c1.66,0.68,3.54,0.3,4.83-1C436.82,6589.85,437.02,6587.47,435.78,6585.66z M432.13,6590.87
				c-1.47,0-2.63-1.17-2.63-2.64c0-1.47,1.17-2.64,2.63-2.64c1.49,0,2.66,1.17,2.65,2.66
				C434.78,6589.71,433.61,6590.87,432.13,6590.87z"/>
			<path class="st0" d="M432.13,6585.59c-1.46,0-2.63,1.17-2.63,2.64c0,1.46,1.16,2.63,2.63,2.64c1.47,0,2.65-1.16,2.65-2.62
				C434.79,6586.76,433.62,6585.59,432.13,6585.59z"/>
		</g>
	</g>
</g>
<g class="st3">
	<circle class="st7" cx="126.96" cy="6587.86" r="40.43"/>
	<g class="st5">
		<path class="st0" d="M115.62,6592.62c-0.61-0.11-0.68-0.47-0.51-1.46c0.19-1.18,2.73-13.61,2.73-13.61l-1.56-0.02
			c0,0-2.49,12.27-2.71,13.45c-0.33,1.87,0.63,2.13,1.14,2.22c0.95,0.15,1.58,0,1.58,0l0.1-0.62
			C116.4,6592.6,116.04,6592.71,115.62,6592.62 M147.18,6577.84l-1.56-0.02c0,0-2.49,12.27-2.71,13.45
			c-0.34,1.87,0.63,2.13,1.14,2.22c0.95,0.15,1.58,0,1.58,0l0.1-0.62c0,0-0.35,0.11-0.78,0.04c-0.61-0.11-0.68-0.47-0.51-1.46
			C144.64,6590.28,147.18,6577.84,147.18,6577.84 M122.81,6590.03c-0.19,0.62-0.96,2.79-2.7,2.77c-2.08-0.02-1.04-3.17-0.87-3.77
			c0.17-0.61,0.95-2.84,2.63-2.83C123.91,6586.22,122.99,6589.41,122.81,6590.03 M123.59,6586.48l-0.05,0
			c-0.41-0.78-1.17-1.03-1.95-1.03c-2.36-0.02-3.74,1.92-4.15,3.8c-0.59,2.69,0.19,4.23,2.43,4.26c0.97,0.01,1.7-0.23,2.66-1.1
			l0.41,0.88l0.97,0.01l1.52-7.57l-1.67-0.02L123.59,6586.48z M131.9,6590.13c-0.17,0.62-0.95,2.79-2.51,2.78
			c-1.87-0.02-1.22-3.18-1.06-3.77c0.26-0.98,0.83-2.77,2.38-2.76C132.83,6586.39,132.07,6589.5,131.9,6590.13 M131.35,6585.54
			c-0.92-0.01-2.13,0.52-2.64,1.22l1.85-9.14l-1.56-0.02c0,0-2.51,12.66-3.21,15.7l0.98,0.01l0.56-0.87
			c0.57,0.88,1.2,1.13,2.17,1.14c2.23,0.02,3.71-1.5,4.31-4.19C134.21,6587.53,133.71,6585.56,131.35,6585.54 M110.1,6589.9
			c-0.19,0.62-0.96,2.79-2.7,2.77c-2.08-0.02-1.04-3.17-0.87-3.77c0.17-0.61,0.95-2.84,2.63-2.83
			C111.21,6586.1,110.29,6589.29,110.1,6589.9 M110.88,6586.35l-0.05,0c-0.41-0.78-1.15-1.03-1.95-1.03
			c-2.36-0.02-3.74,1.92-4.15,3.8c-0.59,2.69,0.19,4.23,2.43,4.26c0.97,0.01,1.7-0.23,2.66-1.1l0.41,0.88l0.97,0.01l1.52-7.57
			l-1.67-0.02L110.88,6586.35z M140.49,6589.09l-3.97-0.04c0.28-1.01,1.13-2.62,2.59-2.6
			C140.7,6586.48,140.73,6588.08,140.49,6589.09 M139.27,6585.64c-2.08-0.02-3.95,1.37-4.41,3.58c-0.77,3.73,2,4.48,3.17,4.49
			c1,0.01,1.8-0.33,2.4-0.77l-0.52-0.62c-0.42,0.25-0.92,0.44-1.47,0.43c-1.93-0.02-2.2-1.67-2.08-2.82l5.56,0.05
			C142.51,6588.11,141.93,6585.66,139.27,6585.64 M149.23,6592.95c-0.61-0.11-0.67-0.47-0.51-1.46c0.19-1.18,2.73-13.61,2.73-13.61
			l-1.56-0.02c0,0-2.49,12.27-2.71,13.45c-0.34,1.87,0.63,2.13,1.14,2.22c0.95,0.15,1.58,0,1.58,0l0.1-0.62
			C150.01,6592.93,149.66,6593.04,149.23,6592.95 M156.43,6590.36c-0.19,0.62-0.96,2.79-2.7,2.77c-2.08-0.02-1.03-3.17-0.87-3.77
			c0.17-0.61,0.95-2.84,2.63-2.83C157.54,6586.55,156.62,6589.74,156.43,6590.36 M157.38,6586.03l-0.17,0.79l-0.05,0
			c-0.41-0.78-1.17-1.03-1.95-1.03c-2.36-0.02-3.74,1.92-4.15,3.8c-0.59,2.69,0.19,4.23,2.43,4.26c0.97,0.01,1.7-0.23,2.66-1.1
			l0.41,0.88l0.97,0.01l1.52-7.57l-1.67-0.02L157.38,6586.03z M104.71,6584.98l-2.92-0.03l1.23-6.11c0.38-1.85,0.6-2.65,1.19-3.31
			c0.31-0.37,0.58-0.58,1.03-0.71c0.34-0.09,0.91,0.01,0.91,0.01l0.08-0.64c-0.26-0.05-0.67-0.05-0.67-0.05
			c-1.05,0-2.05,0.47-2.8,1.34c-1.11,1.22-1.43,2.71-1.76,4.43l-1.01,5.02l-2.84-0.03l-0.19,0.81l2.86,0.03l-2.12,10.61
			c-0.39,1.85-0.53,2.33-1.08,3.14c-0.35,0.51-0.72,0.75-1.31,0.84c-0.1,0.01-0.22,0.02-0.33,0.01l-0.2,0.69l0.36,0.01
			c1.06,0.01,2.06-0.47,2.82-1.33c1.12-1.24,1.43-2.73,1.78-4.45l1.91-9.53l2.9,0.03L104.71,6584.98z"/>
	</g>
</g>
<g class="st3">
	<circle class="st8" cx="736.78" cy="6588.29" r="40.39"/>
	<g class="st5">
		<path class="st0" d="M734.43,6583.89c-0.53-1.15-2.5-0.16-1.94,0.86c0.82,1.5,4.63,10.28,5.23,11.44c0.55,1.06,1.23,1.03,1.79,0
			c0.6-1.08,3.77-8.75,5.05-11.55c0.57-1.26-1.17-1.68-1.64-0.45c-0.71,1.83-3.43,9-3.7,9.46c-0.26,0.45-0.56,0.67-0.93,0.11
			C737.99,6593.32,734.91,6584.93,734.43,6583.89z"/>
		<path class="st0" d="M761.65,6595.7c-0.06,1.32-2.12,1.5-2.19,0.15c-0.04-0.77,0.04-7.36,0.07-9.47c0.02-1.41,2.03-2.34,2.85-2.49
			c0.82-0.15,3.74-0.06,4.97,0c1.46,0.07,1.2,2.09,0.3,2.09c-0.9,0-3.77-0.15-4.78,0.07c-0.47,0.11-1.05,0.62-1.1,1.44
			C761.69,6588.87,761.7,6594.55,761.65,6595.7z"/>
		<path class="st0" d="M716.23,6581.68c0.04-1.29,1.83-1.34,1.91,0c0.11,1.91,0.52,11.66-0.34,14.35c-0.47,1.46-2.32,3.77-3.29,4.3
			c-1.11,0.6-3.14,0.93-4.26,0.37c-0.98-0.49-2.77-2.16-2.95-3.33c-0.22-1.46-0.41-2.95-0.11-4.52c0.2-1.04,1.65-0.81,1.61-0.04
			c-0.04,0.75-0.15,2.32,0.07,3.44c0.16,0.8,1.21,2.22,1.76,2.62c0.67,0.49,2.71,0.1,3.4-0.34c0.41-0.26,1.81-2.2,2.06-3.14
			C716.6,6593.42,716.15,6584.33,716.23,6581.68z"/>
		<path class="st0" d="M732.48,6595.85c-0.07-0.8-0.04-6.62-0.19-7.74c-0.26-2.02-2.31-3.98-3.77-4.45
			c-2.32-0.75-3.49-0.9-5.38-0.07c-1.79,0.79-2.85,1.75-3.51,3.51c-0.64,1.68-0.78,2.84-0.3,4.82c0.52,2.12,1.94,3.65,3.85,4.07
			c1.68,0.37,2.73,0.6,4.56,0.15c1.99-0.49,2.84-1.72,2.84-1.72s0.02,1.43,0.07,1.94C730.76,6597.34,732.56,6596.74,732.48,6595.85z
			 M725.56,6594.87c-2.78,0-5.04-2.24-5.04-5c0-2.76,2.26-5,5.04-5s5.04,2.24,5.04,5C730.6,6592.64,728.35,6594.87,725.56,6594.87z"
			/>
		<path class="st0" d="M757.63,6590.31c0,0,0.11-5-4.3-6.35c-1.46-0.45-3.54-0.28-4.56,0.15c-1.49,0.64-3.3,2.79-3.66,4.45
			c-0.37,1.72-0.19,3.19,0.52,4.71c0.52,1.12,1.16,1.91,2.8,2.95c1.58,1.01,4.75,0.76,6.24-0.37c1.16-0.88,1.96-2,2.58-2.84
			c0.64-0.88-0.28-2.18-1.09-1.19c-0.56,0.69-0.99,1.3-2.26,2.27c-1.35,1.04-3.22,1.12-4.57,0.56c-0.57-0.24-1.71-0.94-2.15-1.89
			c-0.49-1.06-0.24-2.37-0.24-2.37L757.63,6590.31z M749.52,6585.6c0.9-0.51,3.39-0.36,4.07,0.11c1.79,1.23,1.87,3.36,1.87,3.36
			h-8.48C746.98,6589.08,747.21,6586.91,749.52,6585.6z"/>
	</g>
</g>
<g class="st3">
	<path class="st9" d="M-217.97,4169.19c0-22.44,18.21-40.65,40.65-40.65s40.65,18.21,40.65,40.65c0,22.44-18.21,40.65-40.65,40.65
		S-217.97,4191.64-217.97,4169.19"/>
	<g id="g14_15_" transform="matrix(0.34488752,0,0,0.34488752,242.1519,327.89158)" class="st5">
		<path id="path2_15_" class="st10" d="M-1135.07,11138.81c1.32-0.27,12.98-5.61,14.02-6.21c2.38-1.37,3.19-4.41,1.82-6.79
			s-4.41-3.19-6.79-1.82c-1.04,0.6-11.5,8.03-12.39,9.03c-1.02,1.15-1.2,2.8-0.44,4.11
			C-1138.1,11138.45-1136.58,11139.12-1135.07,11138.81L-1135.07,11138.81z"/>
		<path id="path4_15_" class="st10" d="M-1121.05,11150.64c-1.04-0.6-12.7-5.94-14.02-6.21c-1.51-0.31-3.03,0.36-3.78,1.67
			c-0.76,1.31-0.58,2.96,0.44,4.11c0.89,1,11.35,8.43,12.39,9.03c2.38,1.37,5.41,0.56,6.79-1.82S-1118.68,11152.01-1121.05,11150.64
			z"/>
		<path id="path6_15_" class="st10" d="M-1146.61,11150.58c-1.52,0-2.85,0.98-3.34,2.44c-0.42,1.28-1.63,14.04-1.63,15.25
			c0,2.74,2.22,4.97,4.97,4.97c2.74,0,4.97-2.22,4.97-4.97c0-1.2-1.2-13.97-1.63-15.25
			C-1143.76,11151.56-1145.1,11150.58-1146.61,11150.58L-1146.61,11150.58z"/>
		<path id="path8_15_" class="st10" d="M-1158.16,11144.43c-1.32,0.27-12.98,5.61-14.02,6.21c-2.38,1.37-3.19,4.41-1.82,6.79
			s4.41,3.19,6.79,1.82c1.04-0.6,11.5-8.03,12.39-9.03c1.02-1.15,1.2-2.8,0.44-4.11
			C-1155.13,11144.79-1156.65,11144.12-1158.16,11144.43L-1158.16,11144.43z"/>
		<path id="path10_15_" class="st10" d="M-1167.21,11124c-2.38-1.37-5.41-0.56-6.79,1.82s-0.56,5.41,1.82,6.79
			c1.04,0.6,12.7,5.94,14.02,6.21c1.51,0.31,3.03-0.36,3.78-1.67c0.76-1.31,0.58-2.96-0.44-4.11
			C-1155.71,11132.02-1166.17,11124.6-1167.21,11124z"/>
		<path id="path12_15_" class="st10" d="M-1146.61,11110.01c-2.74,0-4.97,2.22-4.97,4.97c0,1.2,1.2,13.97,1.63,15.25
			c0.49,1.46,1.82,2.44,3.34,2.44c1.52,0,2.85-0.98,3.34-2.44c0.42-1.28,1.63-14.04,1.63-15.25
			C-1141.65,11112.23-1143.87,11110.01-1146.61,11110.01z"/>
	</g>
	<g id="g70_15_" transform="matrix(4.4093677,0,0,4.4093677,-528.63986,1132.4594)" class="st5">
		<g id="g12_15_">
		</g>
		<g id="g68_15_">
			<g id="g60_15_">
				<path id="path34-7_15_" class="st0" d="M74.31,687.54c0,0-0.29,1.03-0.49,1.83l-0.09,0.31c-0.04,0.16,0.07,0.16,0.07,0.16h0.56
					l-0.13,0.51h-0.63l0,0c0,0-0.29,0.02-0.42-0.13c-0.13-0.16-0.11-0.31-0.09-0.4c0-0.07,0.27-1.07,0.27-1.07l0.34-1.21H74.31z"/>
				<path id="path36-1_15_" class="st0" d="M78.29,687.54l-0.45,1.85c-0.27,0.96-1.25,0.98-1.25,0.98
					c-0.56,0.04-1.03-0.18-1.07-0.67c-0.11-1.03,1.01-1.68,1.97-1.27c0.07-0.29,0.18-0.56,0.22-0.87h0.58V687.54z M76.25,689.04
					c-0.11,0.18-0.2,0.51-0.07,0.74c0.13,0.25,0.58,0.25,0.8,0.07c0.22-0.18,0.31-0.69,0.4-1.03
					C76.99,688.52,76.45,688.72,76.25,689.04"/>
				<path id="path38-1_15_" class="st0" d="M78.62,689.46c-0.11,0.67,0.89,0.56,1.23,0.31c-0.04,0.16-0.04,0.34-0.07,0.49
					c-0.78,0.25-1.68,0.07-1.74-0.63c-0.09-0.85,0.6-1.3,1.34-1.34c0.42-0.02,0.89,0.04,1.03,0.34c0.07,0.18,0.02,0.42-0.09,0.54
					C79.98,689.51,79.2,689.59,78.62,689.46 M79.2,689.15c0.25-0.02,0.69-0.11,0.6-0.34c-0.04-0.13-0.34-0.18-0.51-0.13
					c-0.27,0.04-0.47,0.25-0.58,0.42C78.87,689.15,79.02,689.15,79.2,689.15"/>
				<path id="path40-5_15_" class="st0" d="M82.28,688.32c0,0-0.16,0.45-0.16,0.47c-0.16-0.04-0.22-0.13-0.45-0.11
					c-0.56,0.07-0.69,0.78-0.8,1.34l-0.04,0.34h-0.6c0.16-0.67,0.31-1.39,0.49-2.06c0.18,0,0.4,0,0.58,0l-0.02,0.16
					C81.5,688.32,81.91,688.23,82.28,688.32"/>
				<path id="path42-2_15_" class="st0" d="M75.56,688.32c-0.16,0.67-0.34,1.36-0.47,2.03h-0.6c0.13-0.54,0.25-1.07,0.38-1.61h-0.31
					l0.11-0.42H75.56z"/>
				<path id="path44-7_15_" class="st0" d="M75.67,687.81c0,0.2-0.18,0.29-0.38,0.29c-0.2,0-0.38-0.13-0.38-0.29
					c0-0.16,0.18-0.29,0.38-0.29C75.51,687.52,75.67,687.65,75.67,687.81"/>
			</g>
		</g>
	</g>
</g>
<g class="st3">
	<path class="st9" d="M697.35,4169.02c0-22.36,18.14-40.5,40.5-40.5c22.36,0,40.5,18.14,40.5,40.5s-18.14,40.5-40.5,40.5
		C715.49,4209.52,697.35,4191.38,697.35,4169.02"/>
	<g id="g14_14_" transform="matrix(0.34488752,0,0,0.34488752,242.1519,327.89158)" class="st5">
		<path id="path2_14_" class="st10" d="M1518.17,11138.31c1.31-0.27,12.93-5.59,13.97-6.19c2.37-1.37,3.18-4.39,1.81-6.76
			c-1.37-2.37-4.39-3.18-6.76-1.81c-1.04,0.6-11.45,8-12.34,9c-1.02,1.15-1.2,2.79-0.44,4.1
			C1515.15,11137.95,1516.66,11138.62,1518.17,11138.31L1518.17,11138.31z"/>
		<path id="path4_14_" class="st10" d="M1532.13,11150.09c-1.04-0.6-12.65-5.92-13.97-6.19c-1.5-0.31-3.02,0.36-3.77,1.67
			c-0.76,1.31-0.58,2.95,0.44,4.1c0.89,1,11.31,8.4,12.34,9c2.37,1.37,5.39,0.56,6.76-1.81
			C1535.31,11154.48,1534.5,11151.46,1532.13,11150.09z"/>
		<path id="path6_14_" class="st10" d="M1506.67,11150.03c-1.51,0-2.84,0.97-3.33,2.43c-0.42,1.27-1.62,13.99-1.62,15.19
			c0,2.73,2.22,4.95,4.95,4.95s4.95-2.22,4.95-4.95c0-1.2-1.2-13.92-1.62-15.19C1509.51,11151,1508.18,11150.03,1506.67,11150.03
			L1506.67,11150.03z"/>
		<path id="path8_14_" class="st10" d="M1495.17,11143.9c-1.31,0.27-12.93,5.59-13.97,6.19c-2.37,1.37-3.18,4.39-1.81,6.76
			c1.37,2.37,4.39,3.18,6.76,1.81c1.04-0.6,11.45-8,12.34-9c1.02-1.15,1.2-2.79,0.44-4.1
			C1498.18,11144.26,1496.67,11143.59,1495.17,11143.9L1495.17,11143.9z"/>
		<path id="path10_14_" class="st10" d="M1486.15,11123.54c-2.37-1.37-5.39-0.56-6.76,1.81c-1.37,2.37-0.56,5.39,1.81,6.76
			c1.04,0.6,12.65,5.92,13.97,6.19c1.5,0.31,3.02-0.36,3.77-1.67c0.76-1.31,0.58-2.95-0.44-4.1
			C1497.61,11131.54,1487.19,11124.14,1486.15,11123.54z"/>
		<path id="path12_14_" class="st10" d="M1506.67,11109.61c-2.73,0-4.95,2.22-4.95,4.95c0,1.2,1.2,13.92,1.62,15.19
			c0.48,1.46,1.82,2.43,3.33,2.43c1.51,0,2.84-0.97,3.33-2.43c0.42-1.27,1.62-13.99,1.62-15.19
			C1511.62,11111.82,1509.4,11109.61,1506.67,11109.61z"/>
	</g>
	<g id="g70_14_" transform="matrix(4.4093677,0,0,4.4093677,-528.63986,1132.4594)" class="st5">
		<g id="g12_14_">
		</g>
		<g id="g68_14_">
			<g id="g60_14_">
				<path id="path34-7_14_" class="st0" d="M281.88,687.5c0,0-0.29,1.02-0.49,1.83l-0.09,0.31c-0.04,0.16,0.07,0.16,0.07,0.16h0.56
					l-0.13,0.51h-0.62l0,0c0,0-0.29,0.02-0.42-0.13c-0.13-0.16-0.11-0.31-0.09-0.4c0-0.07,0.27-1.07,0.27-1.07l0.33-1.2H281.88z"/>
				<path id="path36-1_14_" class="st0" d="M285.84,687.5l-0.45,1.85c-0.27,0.96-1.25,0.98-1.25,0.98
					c-0.56,0.04-1.02-0.18-1.07-0.67c-0.11-1.02,1-1.67,1.96-1.27c0.07-0.29,0.18-0.56,0.22-0.87h0.58V687.5z M283.82,689
					c-0.11,0.18-0.2,0.51-0.07,0.73c0.13,0.24,0.58,0.24,0.8,0.07c0.22-0.18,0.31-0.69,0.4-1.02
					C284.55,688.48,284.02,688.68,283.82,689"/>
				<path id="path38-1_14_" class="st0" d="M286.18,689.42c-0.11,0.67,0.89,0.56,1.22,0.31c-0.04,0.16-0.04,0.33-0.07,0.49
					c-0.78,0.24-1.67,0.07-1.74-0.62c-0.09-0.85,0.6-1.29,1.34-1.34c0.42-0.02,0.89,0.04,1.02,0.33c0.07,0.18,0.02,0.42-0.09,0.53
					C287.53,689.46,286.76,689.55,286.18,689.42 M286.76,689.11c0.24-0.02,0.69-0.11,0.6-0.33c-0.04-0.13-0.33-0.18-0.51-0.13
					c-0.27,0.04-0.47,0.24-0.58,0.42C286.42,689.11,286.58,689.11,286.76,689.11"/>
				<path id="path40-5_14_" class="st0" d="M289.83,688.28c0,0-0.16,0.45-0.16,0.47c-0.16-0.04-0.22-0.13-0.45-0.11
					c-0.56,0.07-0.69,0.78-0.8,1.34l-0.04,0.33h-0.6c0.16-0.67,0.31-1.38,0.49-2.05c0.18,0,0.4,0,0.58,0l-0.02,0.16
					C289.05,688.28,289.45,688.19,289.83,688.28"/>
				<path id="path42-2_14_" class="st0" d="M283.13,688.28c-0.16,0.67-0.33,1.36-0.47,2.03h-0.6c0.13-0.53,0.24-1.07,0.38-1.6h-0.31
					l0.11-0.42H283.13z"/>
				<path id="path44-7_14_" class="st0" d="M283.24,687.77c0,0.2-0.18,0.29-0.38,0.29s-0.38-0.13-0.38-0.29s0.18-0.29,0.38-0.29
					C283.08,687.48,283.24,687.62,283.24,687.77"/>
			</g>
		</g>
	</g>
</g>
<g>
	<circle class="st0" cx="30.69" cy="27.06" r="23.95"/>
	<g>
		<path class="st1" d="M33.79,25.02c0.68-0.69,2.71-2.86,8.99-9.71l0.77-0.84h-3.49l-7.93,8.45c-5.75-7.88-6.13-8.2-6.3-8.33
			l-0.14-0.11h-8.73l10.26,13.77L16.73,39.65h3.49l8.63-9.24c6.81,9.12,6.88,9.14,7.09,9.21l8.71,0.02L33.79,25.02z M24.47,17.07
			c9.89,13.12,13.67,18.21,14.88,19.9h-2.22c-0.66-0.81-3.94-5.13-14.95-19.9H24.47z"/>
	</g>
</g>
</svg>
