<?xml version="1.0" encoding="utf-8"?>
<!-- Generator: Adobe Illustrator 25.3.1, SVG Export Plug-In . SVG Version: 6.00 Build 0)  -->
<svg version="1.1" id="Capa_1" xmlns="http://www.w3.org/2000/svg" xmlns:xlink="http://www.w3.org/1999/xlink" x="0px" y="0px"
	 viewBox="0 0 170 174" style="enable-background:new 0 0 170 174;" xml:space="preserve">
<style type="text/css">
	.st0{fill:#FFFFFF;}
	.st1{fill:#F7931E;}
	.st2{fill:#D27717;}
	.st3{display:none;}
	.st4{display:inline;fill:#FE0002;}
	.st5{display:inline;}
	.st6{fill:#FE0002;}
	.st7{display:inline;fill:#BFD732;}
	.st8{display:inline;fill:#95D32C;stroke:#F7931E;stroke-width:1.1251;stroke-miterlimit:10;}
	.st9{display:inline;fill:#0053E2;}
	.st10{fill:#FFC220;}
</style>
<g>
	<g>
		<circle class="st0" cx="85" cy="87" r="62.32"/>
		<path class="st1" d="M85,151.2c-35.4,0-64.2-28.8-64.2-64.2c0-35.4,28.8-64.2,64.2-64.2s64.2,28.8,64.2,64.2
			C149.2,122.4,120.4,151.2,85,151.2z M85,26.56c-33.33,0-60.44,27.11-60.44,60.44c0,33.33,27.11,60.44,60.44,60.44
			s60.44-27.11,60.44-60.44C145.44,53.67,118.33,26.56,85,26.56z"/>
	</g>
	<g>
		<g>
			<path class="st2" d="M100.25,125.76c-0.74,0-1.38-0.56-1.46-1.31c-0.09-0.8-2.07-19.81,8.3-30.14
				c5.11-5.08,12.27-7.13,21.31-6.09c0.52,0.06,0.97,0.39,1.18,0.87c0.06,0.13,5.7,13.4-7.37,23.66c-5.68,4.46-10.49,6.42-14.3,5.82
				c-2.76-0.43-3.95-2.06-4.07-2.25c-0.24-0.36-0.32-0.8-0.2-1.21c0.15-0.56,3.85-13.8,14.82-17.89c0.76-0.28,1.61,0.1,1.89,0.87
				c0.28,0.76-0.1,1.61-0.87,1.89c-8.09,3.01-11.79,12.27-12.75,15.08c0.35,0.24,0.93,0.51,1.77,0.62c2.04,0.26,5.76-0.44,11.9-5.25
				c9.65-7.58,7.66-16.68,6.78-19.38c-7.67-0.71-13.72,1.09-18,5.34c-9.37,9.32-7.48,27.56-7.46,27.74c0.09,0.81-0.49,1.53-1.3,1.62
				C100.36,125.76,100.3,125.76,100.25,125.76z"/>
		</g>
		<g>
			<path class="st2" d="M111.14,94.37c-0.81,0-1.47-0.66-1.47-1.47V69.67c0-0.81,0.66-1.47,1.47-1.47c0.81,0,1.47,0.66,1.47,1.47
				V92.9C112.61,93.71,111.95,94.37,111.14,94.37z"/>
		</g>
		<g>
			<path class="st2" d="M120.85,76.58c-0.27,0-0.54-0.07-0.78-0.23L80.4,51.45l-38.41,24.9c-0.68,0.44-1.59,0.25-2.03-0.43
				c-0.44-0.68-0.25-1.59,0.43-2.03l39.2-25.41c0.48-0.31,1.1-0.32,1.58-0.01l40.47,25.41c0.69,0.43,0.9,1.34,0.46,2.03
				C121.82,76.34,121.34,76.58,120.85,76.58z"/>
		</g>
		<g>
			<path class="st2" d="M100.23,117.23H51.53c-0.81,0-1.47-0.66-1.47-1.47V69.67c0-0.81,0.66-1.47,1.47-1.47S53,68.86,53,69.67
				v44.62h47.22c0.81,0,1.47,0.66,1.47,1.47C101.7,116.58,101.04,117.23,100.23,117.23z"/>
		</g>
		<g>
			<path class="st2" d="M89.28,117.23H72.22c-0.81,0-1.47-0.66-1.47-1.47V89.43c0-0.81,0.66-1.47,1.47-1.47h17.06
				c0.81,0,1.47,0.66,1.47,1.47v26.34C90.75,116.58,90.09,117.23,89.28,117.23z M73.69,114.29h14.12V90.9H73.69V114.29z"/>
		</g>
	</g>
</g>
<g>
	<g>
		<circle class="st0" cx="831.76" cy="-240.6" r="62.32"/>
		<path class="st1" d="M831.76-176.4c-35.4,0-64.2-28.8-64.2-64.2c0-35.4,28.8-64.2,64.2-64.2c35.4,0,64.2,28.8,64.2,64.2
			C895.96-205.2,867.16-176.4,831.76-176.4z M831.76-301.04c-33.33,0-60.44,27.11-60.44,60.44c0,33.33,27.11,60.44,60.44,60.44
			s60.44-27.11,60.44-60.44C892.2-273.93,865.09-301.04,831.76-301.04z"/>
	</g>
	<g>
		<g>
			<path class="st2" d="M837.05-235.61h-33.05c-0.57,0-1.1-0.33-1.34-0.86c-0.24-0.52-0.16-1.13,0.22-1.57l16.42-19.22
				c0.28-0.33,0.69-0.51,1.11-0.52c0,0,0,0,0,0c0.43,0,0.83,0.19,1.11,0.51l16.63,19.22c0.38,0.44,0.46,1.05,0.23,1.57
				C838.15-235.94,837.63-235.61,837.05-235.61z M807.2-238.55h26.64l-13.4-15.49L807.2-238.55z"/>
		</g>
		<g>
			<path class="st2" d="M840.4-217.46h-39.73c-0.57,0-1.1-0.33-1.34-0.85c-0.24-0.52-0.16-1.13,0.22-1.57l15.5-18.14
				c0.28-0.33,0.69-0.52,1.12-0.52h8.52c0.43,0,0.83,0.19,1.11,0.51l15.71,18.14c0.38,0.44,0.47,1.05,0.23,1.57
				C841.5-217.8,840.98-217.46,840.4-217.46z M803.86-220.4h33.32l-13.16-15.2h-7.17L803.86-220.4z"/>
		</g>
		<g>
			<path class="st2" d="M820.43-205.65c-0.81,0-1.47-0.66-1.47-1.47v-11.81c0-0.81,0.66-1.47,1.47-1.47s1.47,0.66,1.47,1.47v11.81
				C821.9-206.31,821.24-205.65,820.43-205.65z"/>
		</g>
		<g>
			<path class="st2" d="M850.38-219.47c-5.45,0-10.47-3.73-13.79-10.23c-0.37-0.72-0.08-1.61,0.64-1.98
				c0.72-0.37,1.61-0.08,1.98,0.64c2.8,5.48,6.87,8.63,11.17,8.63c8.01,0,14.53-10.64,14.53-23.72c0-13.08-6.52-23.72-14.53-23.72
				c-6.43,0-12.18,7.08-13.97,17.21c-0.14,0.8-0.9,1.34-1.7,1.19c-0.8-0.14-1.33-0.9-1.19-1.7c2.04-11.57,8.98-19.64,16.86-19.64
				c9.63,0,17.47,11.96,17.47,26.66S860.01-219.47,850.38-219.47z"/>
		</g>
		<g>
			<path class="st2" d="M850.38-205.65c-0.81,0-1.47-0.66-1.47-1.47v-38.06c0-0.81,0.66-1.47,1.47-1.47c0.81,0,1.47,0.66,1.47,1.47
				v38.06C851.85-206.31,851.19-205.65,850.38-205.65z"/>
		</g>
		<g>
			<path class="st2" d="M866.37-205.65h-69.53c-0.81,0-1.47-0.66-1.47-1.47c0-0.81,0.66-1.47,1.47-1.47h69.53
				c0.81,0,1.47,0.66,1.47,1.47C867.84-206.31,867.19-205.65,866.37-205.65z"/>
		</g>
		<g>
			<path class="st2" d="M804.01-259.54c-4.41,0-8-3.59-8-8c0-4.41,3.59-8,8-8c4.41,0,8,3.59,8,8
				C812.01-263.13,808.42-259.54,804.01-259.54z M804.01-272.61c-2.79,0-5.06,2.27-5.06,5.06c0,2.79,2.27,5.06,5.06,5.06
				s5.06-2.27,5.06-5.06C809.07-270.34,806.8-272.61,804.01-272.61z"/>
		</g>
	</g>
</g>
<g>
	<g>
		<circle class="st0" cx="562.12" cy="-240.6" r="62.32"/>
		<path class="st1" d="M562.12-176.4c-35.4,0-64.2-28.8-64.2-64.2c0-35.4,28.8-64.2,64.2-64.2c35.4,0,64.2,28.8,64.2,64.2
			C626.32-205.2,597.52-176.4,562.12-176.4z M562.12-301.04c-33.33,0-60.44,27.11-60.44,60.44c0,33.33,27.11,60.44,60.44,60.44
			s60.44-27.11,60.44-60.44C622.56-273.93,595.45-301.04,562.12-301.04z"/>
	</g>
	<g>
		<g>
			<path class="st2" d="M592.57-214.46h-7.03c-4.87,0-8.91-3.59-9.62-8.26h-27.69c-0.71,4.67-4.75,8.26-9.62,8.26h-8.09
				c-0.81,0-1.47-0.66-1.47-1.47v-19.34c0-7.3,5.94-13.25,13.25-13.25h38.49c7.3,0,13.25,5.94,13.25,13.25v19.33
				C594.04-215.11,593.38-214.46,592.57-214.46z M546.87-225.66h30.41c0.81,0,1.47,0.66,1.47,1.47c0,3.74,3.05,6.79,6.79,6.79h5.56
				v-17.86c0-5.68-4.62-10.31-10.31-10.31H542.3c-5.68,0-10.31,4.62-10.31,10.31v17.86h6.61c3.74,0,6.79-3.05,6.79-6.79
				C545.4-225,546.06-225.66,546.87-225.66z"/>
		</g>
		<g>
			<path class="st2" d="M549.11-233.09h-6.85c-0.81,0-1.47-0.66-1.47-1.47c0-0.81,0.66-1.47,1.47-1.47h6.85
				c0.81,0,1.47,0.66,1.47,1.47C550.58-233.75,549.93-233.09,549.11-233.09z"/>
		</g>
		<g>
			<path class="st2" d="M581.15-233.09h-6.86c-0.81,0-1.47-0.66-1.47-1.47c0-0.81,0.66-1.47,1.47-1.47h6.86
				c0.81,0,1.47,0.66,1.47,1.47C582.62-233.75,581.96-233.09,581.15-233.09z"/>
		</g>
		<g>
			<path class="st2" d="M536.32-245.57c-0.28,0-0.56-0.08-0.81-0.25l-5.8-3.87c-0.68-0.45-0.86-1.36-0.41-2.04
				c0.45-0.68,1.36-0.86,2.04-0.41l5.8,3.87c0.68,0.45,0.86,1.36,0.41,2.04C537.27-245.8,536.8-245.57,536.32-245.57z"/>
		</g>
		<g>
			<path class="st2" d="M538.96-245.57c-0.04,0-0.08,0-0.12,0c-0.81-0.06-1.41-0.77-1.35-1.58c0.06-0.8,1.67-19.59,11.62-19.59
				h12.44c0.81,0,1.47,0.66,1.47,1.47c0,0.81-0.66,1.47-1.47,1.47h-12.44c-6.01,0-8.31,12.19-8.68,16.88
				C540.37-246.15,539.72-245.57,538.96-245.57z"/>
		</g>
		<g>
			<path class="st2" d="M586.77-245.57c-0.48,0-0.94-0.23-1.23-0.66c-0.45-0.68-0.27-1.59,0.41-2.04l5.8-3.87
				c0.68-0.45,1.59-0.27,2.04,0.41c0.45,0.68,0.27,1.59-0.41,2.04l-5.8,3.87C587.34-245.65,587.05-245.57,586.77-245.57z"/>
		</g>
		<g>
			<path class="st2" d="M584.13-245.57c-0.76,0-1.4-0.58-1.46-1.35c-0.38-4.7-2.67-16.88-8.68-16.88h-12.44
				c-0.81,0-1.47-0.66-1.47-1.47c0-0.81,0.66-1.47,1.47-1.47h12.44c9.94,0,11.55,18.79,11.62,19.59c0.06,0.81-0.54,1.52-1.35,1.58
				C584.21-245.57,584.17-245.57,584.13-245.57z"/>
		</g>
	</g>
</g>
<g>
	<g>
		<circle class="st0" cx="293.44" cy="-240.6" r="62.32"/>
		<path class="st1" d="M293.44-176.4c-35.4,0-64.2-28.8-64.2-64.2c0-35.4,28.8-64.2,64.2-64.2s64.2,28.8,64.2,64.2
			C357.64-205.2,328.84-176.4,293.44-176.4z M293.44-301.04c-33.33,0-60.44,27.11-60.44,60.44c0,33.33,27.11,60.44,60.44,60.44
			s60.44-27.11,60.44-60.44C353.88-273.93,326.77-301.04,293.44-301.04z"/>
	</g>
	<g>
		<g>
			<g>
				<path class="st2" d="M289.98-223.6h-17.95c-0.45,0-0.88-0.21-1.16-0.57c-0.28-0.36-0.38-0.82-0.27-1.26l3.45-13.79
					c0.16-0.65,0.75-1.11,1.43-1.11h29.14c0.81,0,1.47,0.66,1.47,1.47c0,0.81-0.66,1.47-1.47,1.47h-27.99l-2.71,10.85h16.07
					c0.81,0,1.47,0.66,1.47,1.47C291.45-224.26,290.79-223.6,289.98-223.6z"/>
			</g>
			<g>
				<path class="st2" d="M305.64-237.39h-31.03c-0.81,0-1.47-0.66-1.47-1.47v-19.48c0-0.81,0.66-1.47,1.47-1.47h31.03
					c0.81,0,1.47,0.66,1.47,1.47v19.48C307.11-238.05,306.45-237.39,305.64-237.39z M276.08-240.33h28.09v-16.54h-28.09V-240.33z"/>
			</g>
		</g>
		<g>
			<path class="st2" d="M290.58-211.85h-21.14c-5.88,0-10.67-4.79-10.67-10.67v-41.08c0-5.88,4.79-10.67,10.67-10.67h41.08
				c5.88,0,10.67,4.79,10.67,10.67v22.46c0,0.81-0.66,1.47-1.47,1.47c-0.81,0-1.47-0.66-1.47-1.47v-22.46
				c0-4.26-3.47-7.73-7.73-7.73h-41.08c-4.26,0-7.73,3.47-7.73,7.73v41.08c0,4.26,3.47,7.73,7.73,7.73h21.14
				c0.81,0,1.47,0.66,1.47,1.47C292.05-212.51,291.39-211.85,290.58-211.85z"/>
		</g>
		<g>
			<path class="st2" d="M308.06-206.93c-0.55,0-1.07-0.31-1.32-0.82c-1.62-3.26-9.66-19.78-8.5-24.57c0.18-0.76,0.69-1.37,1.44-1.72
				c4.47-2.12,22.41,6.17,27.79,8.76c0.53,0.25,0.86,0.8,0.83,1.39c-0.02,0.59-0.4,1.1-0.95,1.31c-0.09,0.04-9.23,3.52-12.46,4.81
				c-1.8,0.72-4.31,6.28-5.44,9.82c-0.18,0.57-0.69,0.97-1.29,1.02C308.13-206.93,308.09-206.93,308.06-206.93z M301.06-231.43
				c-0.36,2.68,3.36,11.93,6.8,19.27c1.28-3.13,3.41-7.32,5.93-8.33c2.02-0.81,6.29-2.45,9.27-3.59
				C313.44-228.49,303.17-232.19,301.06-231.43z"/>
		</g>
	</g>
</g>
<g class="st3">
	<circle class="st4" cx="988.15" cy="6757.29" r="40.74"/>
	<g class="st5">
		<g>
			<path class="st0" d="M1010.3,6747.12c1.78,0,3.57-0.08,5.35,0.02c2.75,0.15,4.82,2.39,4.84,5.14c0.02,3.36,0.03,6.71,0,10.07
				c-0.02,2.85-2.32,5.11-5.21,5.14c-3.33,0.03-6.66,0.02-9.99,0c-2.9-0.02-5.18-2.35-5.18-5.25c0-3.29-0.01-6.59,0-9.88
				c0-2.92,2.3-5.23,5.22-5.25c1.66-0.01,3.32,0,4.98,0C1010.3,6747.1,1010.3,6747.11,1010.3,6747.12z M1006.37,6756.83
				c-0.01,3.07,2.29,5.14,4.99,4.84c1-0.11,1.87-0.52,2.59-1.22c0.37-0.36,0.39-0.9,0.08-1.25c-0.33-0.38-0.85-0.42-1.28-0.1
				c-0.1,0.08-0.19,0.16-0.29,0.24c-0.87,0.68-2.08,0.73-3.05,0.13c-0.93-0.59-1.41-1.73-1.18-2.78c0.44-1.97,2.7-2.78,4.29-1.54
				c0.16,0.13,0.34,0.26,0.53,0.33c0.39,0.13,0.83-0.07,1.02-0.43c0.2-0.39,0.13-0.86-0.22-1.15c-1.46-1.24-3.1-1.53-4.84-0.75
				C1007.29,6753.91,1006.45,6755.32,1006.37,6756.83z"/>
			<path class="st0" d="M965.98,6747.12c1.82,0,3.65-0.07,5.46,0.02c2.53,0.12,4.7,2.42,4.73,4.95c0.03,3.47,0.03,6.94,0,10.4
				c-0.02,2.66-2.33,4.94-5.06,4.98c-3.41,0.04-6.81,0.04-10.22,0c-2.85-0.04-5.09-2.35-5.1-5.21c-0.01-3.33-0.01-6.66,0-9.99
				c0.01-2.87,2.32-5.14,5.26-5.17c1.65-0.02,3.29,0,4.94,0C965.98,6747.1,965.98,6747.11,965.98,6747.12z M968.6,6760.89
				c0.01,0.02,0.03,0.05,0.05,0.08c0.23,0.56,0.58,0.79,1.08,0.69c0.45-0.09,0.7-0.46,0.71-1.04c0-1.13,0.01-2.27,0-3.4
				c-0.04-2.83-2.63-4.93-5.36-4.35c-2.49,0.53-4.05,3.06-3.38,5.49c0.68,2.49,3.24,3.89,5.69,3.07
				C967.79,6761.29,968.18,6761.07,968.6,6760.89z"/>
			<path class="st0" d="M977.97,6757.25c0-1.78-0.08-3.57,0.02-5.35c0.14-2.71,2.43-4.8,5.13-4.81c3.32-0.01,6.64-0.01,9.95,0
				c2.97,0.01,5.25,2.32,5.26,5.28c0,3.26,0,6.51,0,9.77c0,3.05-2.3,5.33-5.36,5.33c-3.22,0-6.44,0-9.65,0
				c-3.06,0-5.35-2.27-5.37-5.33c-0.01-1.63,0-3.27,0-4.9C977.96,6757.25,977.97,6757.25,977.97,6757.25z M985.5,6753.6
				c0-0.89,0.01-1.71-0.01-2.53c-0.01-0.24-0.06-0.5-0.18-0.7c-0.21-0.34-0.63-0.46-0.99-0.34c-0.39,0.12-0.62,0.45-0.62,0.92
				c0,2.1-0.01,4.19,0,6.29c0.01,1.82,1.1,3.44,2.77,4.13c1.66,0.68,3.54,0.3,4.83-1c1.52-1.51,1.72-3.89,0.48-5.7
				c-1.18-1.73-3.53-2.37-5.46-1.49C986.07,6753.29,985.82,6753.43,985.5,6753.6z"/>
		</g>
		<g>
			<path class="st6" d="M1006.37,6756.83c0.09-1.51,0.93-2.92,2.65-3.69c1.74-0.78,3.38-0.49,4.84,0.75
				c0.35,0.3,0.42,0.77,0.22,1.15c-0.19,0.35-0.63,0.56-1.02,0.43c-0.19-0.06-0.37-0.2-0.53-0.33c-1.59-1.24-3.85-0.44-4.29,1.54
				c-0.23,1.05,0.25,2.19,1.18,2.78c0.96,0.61,2.18,0.56,3.05-0.13c0.1-0.08,0.19-0.16,0.29-0.24c0.42-0.32,0.95-0.27,1.28,0.1
				c0.31,0.35,0.29,0.89-0.08,1.25c-0.72,0.71-1.59,1.11-2.59,1.22C1008.65,6761.97,1006.36,6759.9,1006.37,6756.83z"/>
			<path class="st6" d="M970.43,6757.22c-0.04-2.83-2.63-4.93-5.36-4.35c-2.49,0.53-4.05,3.06-3.38,5.49
				c0.68,2.49,3.24,3.89,5.69,3.07c0.42-0.14,0.81-0.36,1.23-0.54c0.01,0.02,0.03,0.05,0.05,0.08c0.23,0.56,0.58,0.79,1.08,0.69
				c0.45-0.09,0.7-0.46,0.71-1.04C970.43,6759.48,970.44,6758.35,970.43,6757.22z M966,6759.86c-1.49-0.01-2.67-1.19-2.66-2.66
				c0.01-1.45,1.2-2.63,2.66-2.62c1.46,0.01,2.63,1.2,2.63,2.66C968.62,6758.67,967.42,6759.87,966,6759.86z"/>
			<path class="st0" d="M966,6754.58c-1.46-0.01-2.66,1.16-2.66,2.62c-0.01,1.47,1.17,2.65,2.66,2.66c1.42,0.01,2.62-1.19,2.63-2.62
				C968.63,6755.78,967.46,6754.59,966,6754.58z"/>
			<path class="st6" d="M991.78,6754.66c-1.18-1.73-3.53-2.37-5.46-1.49c-0.26,0.12-0.51,0.26-0.83,0.42c0-0.89,0.01-1.71-0.01-2.53
				c-0.01-0.24-0.06-0.5-0.18-0.7c-0.21-0.34-0.63-0.46-0.99-0.34c-0.39,0.12-0.62,0.45-0.62,0.92c0,2.1-0.01,4.19,0,6.29
				c0.01,1.82,1.1,3.44,2.77,4.13c1.66,0.68,3.54,0.3,4.83-1C992.82,6758.85,993.02,6756.47,991.78,6754.66z M988.13,6759.87
				c-1.47,0-2.63-1.17-2.63-2.64c0-1.47,1.17-2.64,2.63-2.64c1.49,0,2.66,1.17,2.65,2.66
				C990.78,6758.71,989.61,6759.87,988.13,6759.87z"/>
			<path class="st0" d="M988.13,6754.59c-1.46,0-2.62,1.17-2.63,2.64c0,1.46,1.16,2.63,2.63,2.64c1.47,0,2.65-1.16,2.65-2.62
				C990.79,6755.76,989.62,6754.59,988.13,6754.59z"/>
		</g>
	</g>
</g>
<g class="st3">
	<circle class="st7" cx="682.96" cy="6756.86" r="40.43"/>
	<g class="st5">
		<path class="st0" d="M671.62,6761.62c-0.61-0.11-0.68-0.47-0.51-1.46c0.19-1.18,2.73-13.61,2.73-13.61l-1.56-0.02
			c0,0-2.49,12.27-2.71,13.45c-0.33,1.87,0.63,2.13,1.14,2.22c0.95,0.15,1.58,0,1.58,0l0.1-0.62
			C672.4,6761.6,672.04,6761.71,671.62,6761.62 M703.18,6746.84l-1.56-0.02c0,0-2.49,12.27-2.71,13.45
			c-0.34,1.87,0.63,2.13,1.14,2.22c0.95,0.15,1.58,0,1.58,0l0.1-0.62c0,0-0.35,0.11-0.78,0.04c-0.61-0.11-0.68-0.47-0.51-1.46
			C700.64,6759.28,703.18,6746.84,703.18,6746.84 M678.81,6759.03c-0.19,0.62-0.96,2.79-2.7,2.77c-2.08-0.02-1.04-3.17-0.87-3.77
			c0.17-0.61,0.95-2.84,2.63-2.83C679.91,6755.22,678.99,6758.41,678.81,6759.03 M679.59,6755.48l-0.05,0
			c-0.41-0.78-1.17-1.03-1.95-1.03c-2.36-0.02-3.74,1.92-4.15,3.8c-0.59,2.69,0.19,4.23,2.43,4.26c0.97,0.01,1.7-0.23,2.66-1.1
			l0.41,0.88l0.97,0.01l1.52-7.57l-1.67-0.02L679.59,6755.48z M687.9,6759.13c-0.17,0.62-0.95,2.79-2.51,2.78
			c-1.87-0.02-1.22-3.18-1.06-3.77c0.26-0.98,0.83-2.77,2.38-2.76C688.83,6755.39,688.07,6758.5,687.9,6759.13 M687.35,6754.54
			c-0.92-0.01-2.13,0.52-2.64,1.22l1.85-9.14l-1.56-0.02c0,0-2.51,12.66-3.21,15.7l0.98,0.01l0.56-0.87
			c0.57,0.88,1.2,1.13,2.17,1.14c2.23,0.02,3.71-1.5,4.31-4.19C690.21,6756.53,689.71,6754.56,687.35,6754.54 M666.1,6758.9
			c-0.19,0.62-0.96,2.79-2.7,2.77c-2.08-0.02-1.04-3.17-0.87-3.77c0.17-0.61,0.95-2.84,2.63-2.83
			C667.21,6755.1,666.29,6758.29,666.1,6758.9 M666.88,6755.35l-0.05,0c-0.41-0.78-1.15-1.03-1.95-1.03
			c-2.36-0.02-3.74,1.92-4.15,3.8c-0.59,2.69,0.19,4.23,2.43,4.26c0.97,0.01,1.7-0.23,2.66-1.1l0.41,0.88l0.97,0.01l1.52-7.57
			l-1.67-0.02L666.88,6755.35z M696.49,6758.09l-3.97-0.04c0.28-1.01,1.13-2.62,2.59-2.6
			C696.7,6755.48,696.73,6757.08,696.49,6758.09 M695.27,6754.64c-2.08-0.02-3.95,1.37-4.41,3.58c-0.77,3.73,2,4.48,3.17,4.49
			c1,0.01,1.8-0.33,2.4-0.77l-0.52-0.62c-0.42,0.25-0.92,0.44-1.47,0.43c-1.93-0.02-2.2-1.67-2.08-2.82l5.56,0.05
			C698.51,6757.11,697.93,6754.66,695.27,6754.64 M705.23,6761.95c-0.61-0.11-0.67-0.47-0.51-1.46c0.19-1.18,2.73-13.61,2.73-13.61
			l-1.56-0.02c0,0-2.49,12.27-2.71,13.45c-0.34,1.87,0.63,2.13,1.14,2.22c0.95,0.15,1.58,0,1.58,0l0.1-0.62
			C706.01,6761.93,705.66,6762.04,705.23,6761.95 M712.43,6759.36c-0.19,0.62-0.96,2.79-2.7,2.77c-2.08-0.02-1.03-3.17-0.87-3.77
			c0.17-0.61,0.95-2.84,2.63-2.83C713.54,6755.55,712.62,6758.74,712.43,6759.36 M713.38,6755.03l-0.17,0.79l-0.05,0
			c-0.41-0.78-1.17-1.03-1.95-1.03c-2.36-0.02-3.74,1.92-4.15,3.8c-0.59,2.69,0.19,4.23,2.43,4.26c0.97,0.01,1.7-0.23,2.66-1.1
			l0.41,0.88l0.97,0.01l1.52-7.57l-1.67-0.02L713.38,6755.03z M660.71,6753.98l-2.92-0.03l1.23-6.11c0.38-1.85,0.6-2.65,1.19-3.31
			c0.31-0.37,0.58-0.58,1.03-0.71c0.34-0.09,0.91,0.01,0.91,0.01l0.08-0.64c-0.26-0.05-0.67-0.05-0.67-0.05
			c-1.05,0-2.05,0.47-2.8,1.34c-1.11,1.22-1.43,2.71-1.76,4.43l-1.01,5.02l-2.84-0.03l-0.19,0.81l2.86,0.03l-2.12,10.61
			c-0.39,1.85-0.53,2.33-1.08,3.14c-0.35,0.51-0.72,0.75-1.31,0.84c-0.1,0.01-0.22,0.02-0.33,0.01l-0.2,0.69l0.36,0.01
			c1.06,0.01,2.06-0.47,2.82-1.33c1.12-1.24,1.43-2.73,1.78-4.45l1.91-9.53l2.9,0.03L660.71,6753.98z"/>
	</g>
</g>
<g class="st3">
	<circle class="st8" cx="1292.78" cy="6757.29" r="40.39"/>
	<g class="st5">
		<path class="st0" d="M1290.43,6752.89c-0.53-1.15-2.5-0.16-1.94,0.86c0.82,1.5,4.63,10.28,5.23,11.44c0.55,1.06,1.23,1.03,1.79,0
			c0.6-1.08,3.77-8.75,5.05-11.55c0.57-1.26-1.17-1.68-1.64-0.45c-0.71,1.83-3.43,9-3.7,9.46c-0.26,0.45-0.56,0.67-0.93,0.11
			C1293.99,6762.32,1290.91,6753.93,1290.43,6752.89z"/>
		<path class="st0" d="M1317.65,6764.7c-0.06,1.32-2.12,1.5-2.19,0.15c-0.04-0.77,0.04-7.36,0.07-9.47
			c0.03-1.41,2.03-2.34,2.85-2.49c0.82-0.15,3.74-0.06,4.97,0c1.46,0.07,1.2,2.09,0.3,2.09s-3.77-0.15-4.78,0.07
			c-0.47,0.11-1.05,0.62-1.1,1.44C1317.69,6757.87,1317.7,6763.55,1317.65,6764.7z"/>
		<path class="st0" d="M1272.23,6750.68c0.04-1.29,1.83-1.34,1.91,0c0.11,1.91,0.52,11.66-0.34,14.35c-0.47,1.46-2.32,3.77-3.29,4.3
			c-1.11,0.6-3.14,0.93-4.26,0.37c-0.98-0.49-2.77-2.16-2.95-3.33c-0.22-1.46-0.41-2.95-0.11-4.52c0.2-1.04,1.65-0.81,1.61-0.04
			c-0.04,0.75-0.15,2.32,0.07,3.44c0.16,0.8,1.21,2.22,1.76,2.62c0.67,0.49,2.71,0.1,3.4-0.34c0.41-0.26,1.81-2.2,2.06-3.14
			C1272.6,6762.42,1272.15,6753.33,1272.23,6750.68z"/>
		<path class="st0" d="M1288.48,6764.85c-0.07-0.8-0.04-6.62-0.19-7.74c-0.26-2.02-2.31-3.98-3.77-4.45
			c-2.32-0.75-3.49-0.9-5.38-0.07c-1.79,0.79-2.85,1.75-3.51,3.51c-0.64,1.68-0.78,2.84-0.3,4.82c0.52,2.12,1.94,3.65,3.85,4.07
			c1.68,0.37,2.73,0.6,4.56,0.15c1.99-0.49,2.84-1.72,2.84-1.72s0.02,1.43,0.07,1.94
			C1286.76,6766.34,1288.56,6765.74,1288.48,6764.85z M1281.56,6763.87c-2.78,0-5.04-2.24-5.04-5c0-2.76,2.26-5,5.04-5
			s5.04,2.24,5.04,5C1286.6,6761.64,1284.35,6763.87,1281.56,6763.87z"/>
		<path class="st0" d="M1313.63,6759.31c0,0,0.11-5-4.3-6.35c-1.46-0.45-3.54-0.28-4.56,0.15c-1.49,0.64-3.3,2.79-3.66,4.45
			c-0.37,1.72-0.19,3.19,0.52,4.71c0.52,1.12,1.16,1.91,2.8,2.95c1.58,1.01,4.75,0.76,6.24-0.37c1.16-0.88,1.96-2,2.58-2.84
			c0.64-0.88-0.28-2.18-1.09-1.19c-0.56,0.69-0.99,1.3-2.26,2.27c-1.35,1.04-3.22,1.12-4.57,0.56c-0.57-0.24-1.71-0.94-2.15-1.89
			c-0.49-1.06-0.24-2.37-0.24-2.37L1313.63,6759.31z M1305.52,6754.6c0.9-0.51,3.39-0.36,4.07,0.11c1.79,1.23,1.87,3.36,1.87,3.36
			h-8.48C1302.98,6758.08,1303.21,6755.91,1305.52,6754.6z"/>
	</g>
</g>
<g class="st3">
	<path class="st9" d="M338.03,4338.19c0-22.44,18.21-40.65,40.65-40.65s40.65,18.21,40.65,40.65c0,22.44-18.21,40.65-40.65,40.65
		S338.03,4360.64,338.03,4338.19"/>
	<g id="g14_15_" transform="matrix(0.34488752,0,0,0.34488752,242.1519,327.89158)" class="st5">
		<path id="path2_15_" class="st10" d="M477.05,11628.83c1.32-0.27,12.98-5.61,14.02-6.21c2.38-1.37,3.19-4.41,1.82-6.79
			c-1.37-2.38-4.41-3.19-6.79-1.82c-1.04,0.6-11.5,8.03-12.39,9.03c-1.02,1.15-1.2,2.8-0.44,4.11
			C474.02,11628.47,475.54,11629.14,477.05,11628.83L477.05,11628.83z"/>
		<path id="path4_15_" class="st10" d="M491.06,11640.66c-1.04-0.6-12.7-5.94-14.02-6.21c-1.51-0.31-3.03,0.36-3.78,1.67
			c-0.76,1.31-0.58,2.96,0.44,4.11c0.89,1.01,11.35,8.43,12.39,9.03c2.38,1.37,5.41,0.56,6.79-1.82
			C494.25,11645.07,493.44,11642.03,491.06,11640.66z"/>
		<path id="path6_15_" class="st10" d="M465.5,11640.59c-1.52,0-2.85,0.98-3.34,2.44c-0.42,1.28-1.63,14.04-1.63,15.25
			c0,2.74,2.22,4.97,4.97,4.97s4.97-2.22,4.97-4.97c0-1.2-1.2-13.97-1.63-15.25C468.36,11641.57,467.02,11640.59,465.5,11640.59
			L465.5,11640.59z"/>
		<path id="path8_15_" class="st10" d="M453.96,11634.44c-1.32,0.27-12.98,5.61-14.02,6.21c-2.38,1.37-3.19,4.41-1.82,6.79
			c1.37,2.38,4.41,3.19,6.79,1.82c1.04-0.6,11.5-8.03,12.39-9.03c1.02-1.15,1.2-2.8,0.44-4.11
			C456.99,11634.8,455.47,11634.13,453.96,11634.44L453.96,11634.44z"/>
		<path id="path10_15_" class="st10" d="M444.91,11614.01c-2.38-1.37-5.41-0.56-6.79,1.82c-1.37,2.38-0.56,5.41,1.82,6.79
			c1.04,0.6,12.7,5.94,14.02,6.21c1.51,0.31,3.03-0.36,3.78-1.67c0.76-1.31,0.58-2.96-0.44-4.11
			C456.41,11622.04,445.95,11614.61,444.91,11614.01z"/>
		<path id="path12_15_" class="st10" d="M465.5,11600.02c-2.74,0-4.97,2.22-4.97,4.97c0,1.2,1.2,13.97,1.63,15.25
			c0.49,1.46,1.82,2.44,3.34,2.44c1.52,0,2.85-0.98,3.34-2.44c0.42-1.28,1.63-14.04,1.63-15.25
			C470.47,11602.25,468.25,11600.02,465.5,11600.02z"/>
	</g>
	<g id="g70_15_" transform="matrix(4.4093677,0,0,4.4093677,-528.63986,1132.4594)" class="st5">
		<g id="g12_15_">
		</g>
		<g id="g68_15_">
			<g id="g60_15_">
				<path id="path34-7_15_" class="st0" d="M200.4,725.87c0,0-0.29,1.03-0.49,1.83l-0.09,0.31c-0.04,0.16,0.07,0.16,0.07,0.16h0.56
					l-0.13,0.51h-0.63l0,0c0,0-0.29,0.02-0.42-0.13c-0.13-0.16-0.11-0.31-0.09-0.4c0-0.07,0.27-1.07,0.27-1.07l0.34-1.21H200.4z"/>
				<path id="path36-1_15_" class="st0" d="M204.38,725.87l-0.45,1.85c-0.27,0.96-1.25,0.98-1.25,0.98
					c-0.56,0.04-1.03-0.18-1.07-0.67c-0.11-1.03,1.01-1.68,1.97-1.27c0.07-0.29,0.18-0.56,0.22-0.87h0.58V725.87z M202.35,727.36
					c-0.11,0.18-0.2,0.51-0.07,0.74c0.13,0.25,0.58,0.25,0.8,0.07c0.22-0.18,0.31-0.69,0.4-1.03
					C203.08,726.85,202.55,727.05,202.35,727.36"/>
				<path id="path38-1_15_" class="st0" d="M204.72,727.79c-0.11,0.67,0.89,0.56,1.23,0.31c-0.04,0.16-0.04,0.34-0.07,0.49
					c-0.78,0.25-1.68,0.07-1.74-0.63c-0.09-0.85,0.6-1.3,1.34-1.34c0.42-0.02,0.89,0.04,1.03,0.34c0.07,0.18,0.02,0.42-0.09,0.54
					C206.08,727.83,205.3,727.92,204.72,727.79 M205.3,727.48c0.25-0.02,0.69-0.11,0.6-0.34c-0.04-0.13-0.34-0.18-0.51-0.13
					c-0.27,0.04-0.47,0.25-0.58,0.42C204.96,727.48,205.12,727.48,205.3,727.48"/>
				<path id="path40-5_15_" class="st0" d="M208.38,726.65c0,0-0.16,0.45-0.16,0.47c-0.16-0.04-0.22-0.13-0.45-0.11
					c-0.56,0.07-0.69,0.78-0.8,1.34l-0.04,0.34h-0.6c0.16-0.67,0.31-1.39,0.49-2.06c0.18,0,0.4,0,0.58,0l-0.02,0.16
					C207.6,726.65,208,726.56,208.38,726.65"/>
				<path id="path42-2_15_" class="st0" d="M201.65,726.65c-0.16,0.67-0.34,1.36-0.47,2.03h-0.6c0.13-0.54,0.25-1.07,0.38-1.61
					h-0.31l0.11-0.42H201.65z"/>
				<path id="path44-7_15_" class="st0" d="M201.77,726.13c0,0.2-0.18,0.29-0.38,0.29c-0.2,0-0.38-0.13-0.38-0.29
					c0-0.16,0.18-0.29,0.38-0.29C201.61,725.84,201.77,725.98,201.77,726.13"/>
			</g>
		</g>
	</g>
</g>
<g class="st3">
	<path class="st9" d="M1253.35,4338.02c0-22.36,18.14-40.5,40.5-40.5c22.36,0,40.5,18.14,40.5,40.5s-18.14,40.5-40.5,40.5
		C1271.49,4378.52,1253.35,4360.38,1253.35,4338.02"/>
	<g id="g14_14_" transform="matrix(0.34488752,0,0,0.34488752,242.1519,327.89158)" class="st5">
		<path id="path2_14_" class="st10" d="M3130.29,11628.32c1.31-0.27,12.93-5.59,13.97-6.19c2.37-1.37,3.18-4.39,1.81-6.76
			c-1.37-2.37-4.39-3.18-6.76-1.81c-1.04,0.6-11.45,8-12.34,9c-1.02,1.15-1.2,2.79-0.44,4.1
			C3127.27,11627.96,3128.78,11628.63,3130.29,11628.32L3130.29,11628.32z"/>
		<path id="path4_14_" class="st10" d="M3144.25,11640.11c-1.04-0.6-12.65-5.92-13.97-6.19c-1.5-0.31-3.02,0.36-3.77,1.67
			s-0.58,2.95,0.44,4.1c0.89,1,11.31,8.4,12.34,9c2.37,1.37,5.39,0.56,6.76-1.81C3147.43,11644.5,3146.62,11641.47,3144.25,11640.11
			z"/>
		<path id="path6_14_" class="st10" d="M3118.79,11640.04c-1.51,0-2.84,0.97-3.33,2.43c-0.42,1.27-1.62,13.99-1.62,15.19
			c0,2.73,2.22,4.95,4.95,4.95c2.73,0,4.95-2.22,4.95-4.95c0-1.2-1.2-13.92-1.62-15.19
			C3121.63,11641.02,3120.3,11640.04,3118.79,11640.04L3118.79,11640.04z"/>
		<path id="path8_14_" class="st10" d="M3107.29,11633.91c-1.31,0.27-12.93,5.59-13.97,6.19c-2.37,1.37-3.18,4.39-1.81,6.76
			c1.37,2.37,4.39,3.18,6.76,1.81c1.04-0.6,11.45-8,12.34-9c1.02-1.15,1.2-2.79,0.44-4.1
			C3110.3,11634.27,3108.79,11633.6,3107.29,11633.91L3107.29,11633.91z"/>
		<path id="path10_14_" class="st10" d="M3098.27,11613.56c-2.37-1.37-5.39-0.56-6.76,1.81s-0.56,5.39,1.81,6.76
			c1.04,0.6,12.65,5.92,13.97,6.19c1.5,0.31,3.02-0.36,3.77-1.67c0.76-1.31,0.58-2.95-0.44-4.1
			C3109.72,11621.55,3099.31,11614.16,3098.27,11613.56z"/>
		<path id="path12_14_" class="st10" d="M3118.79,11599.62c-2.73,0-4.95,2.22-4.95,4.95c0,1.2,1.2,13.92,1.62,15.19
			c0.48,1.46,1.82,2.43,3.33,2.43c1.51,0,2.84-0.97,3.33-2.43c0.42-1.27,1.62-13.99,1.62-15.19
			C3123.73,11601.84,3121.52,11599.62,3118.79,11599.62z"/>
	</g>
	<g id="g70_14_" transform="matrix(4.4093677,0,0,4.4093677,-528.63986,1132.4594)" class="st5">
		<g id="g12_14_">
		</g>
		<g id="g68_14_">
			<g id="g60_14_">
				<path id="path34-7_14_" class="st0" d="M407.98,725.83c0,0-0.29,1.02-0.49,1.83l-0.09,0.31c-0.04,0.16,0.07,0.16,0.07,0.16h0.56
					l-0.13,0.51h-0.62l0,0c0,0-0.29,0.02-0.42-0.13s-0.11-0.31-0.09-0.4c0-0.07,0.27-1.07,0.27-1.07l0.33-1.2H407.98z"/>
				<path id="path36-1_14_" class="st0" d="M411.94,725.83l-0.45,1.85c-0.27,0.96-1.25,0.98-1.25,0.98
					c-0.56,0.04-1.02-0.18-1.07-0.67c-0.11-1.02,1-1.67,1.96-1.27c0.07-0.29,0.18-0.56,0.22-0.87h0.58V725.83z M409.91,727.32
					c-0.11,0.18-0.2,0.51-0.07,0.73c0.13,0.24,0.58,0.24,0.8,0.07c0.22-0.18,0.31-0.69,0.4-1.02
					C410.65,726.81,410.11,727.01,409.91,727.32"/>
				<path id="path38-1_14_" class="st0" d="M412.27,727.75c-0.11,0.67,0.89,0.56,1.22,0.31c-0.04,0.16-0.04,0.33-0.07,0.49
					c-0.78,0.24-1.67,0.07-1.74-0.62c-0.09-0.85,0.6-1.29,1.34-1.34c0.42-0.02,0.89,0.04,1.02,0.33c0.07,0.18,0.02,0.42-0.09,0.53
					C413.63,727.79,412.85,727.88,412.27,727.75 M412.85,727.43c0.24-0.02,0.69-0.11,0.6-0.33c-0.04-0.13-0.33-0.18-0.51-0.13
					c-0.27,0.04-0.47,0.24-0.58,0.42C412.52,727.43,412.67,727.43,412.85,727.43"/>
				<path id="path40-5_14_" class="st0" d="M415.92,726.61c0,0-0.16,0.45-0.16,0.47c-0.16-0.04-0.22-0.13-0.45-0.11
					c-0.56,0.07-0.69,0.78-0.8,1.34l-0.04,0.33h-0.6c0.16-0.67,0.31-1.38,0.49-2.05c0.18,0,0.4,0,0.58,0l-0.02,0.16
					C415.14,726.61,415.54,726.52,415.92,726.61"/>
				<path id="path42-2_14_" class="st0" d="M409.22,726.61c-0.16,0.67-0.33,1.36-0.47,2.03h-0.6c0.13-0.53,0.24-1.07,0.38-1.6h-0.31
					l0.11-0.42H409.22z"/>
				<path id="path44-7_14_" class="st0" d="M409.33,726.1c0,0.2-0.18,0.29-0.38,0.29s-0.38-0.13-0.38-0.29s0.18-0.29,0.38-0.29
					C409.18,725.81,409.33,725.94,409.33,726.1"/>
			</g>
		</g>
	</g>
</g>
</svg>
