<?xml version="1.0" encoding="utf-8"?>
<!-- Generator: Adobe Illustrator 25.3.1, SVG Export Plug-In . SVG Version: 6.00 Build 0)  -->
<svg version="1.1" id="Capa_1" xmlns="http://www.w3.org/2000/svg" xmlns:xlink="http://www.w3.org/1999/xlink" x="0px" y="0px"
	 viewBox="0 0 286 270" style="enable-background:new 0 0 286 270;" xml:space="preserve">
<style type="text/css">
	.st0{clip-path:url(#SVGID_2_);}
	.st1{fill:none;}
	.st2{fill:#F9F9F9;}
	.st3{fill:#FFFFFF;}
	.st4{display:none;}
	.st5{display:inline;fill:#FE0002;}
	.st6{display:inline;}
	.st7{fill:#FE0002;}
	.st8{display:inline;fill:#BFD732;}
	.st9{display:inline;fill:#95D32C;stroke:#F7931E;stroke-width:1.1251;stroke-miterlimit:10;}
	.st10{display:inline;fill:#0053E2;}
	.st11{fill:#FFC220;}
</style>
<g>
	<g>
		<defs>
			<circle id="SVGID_1_" cx="145.8" cy="137.69" r="121.66"/>
		</defs>
		<use xlink:href="#SVGID_1_"  style="overflow:visible;fill:#D27717;"/>
		<clipPath id="SVGID_2_">
			<use xlink:href="#SVGID_1_"  style="overflow:visible;"/>
		</clipPath>
		<g class="st0">
			<g>
				<path class="st1" d="M137.07,60.97c-0.29,0.14-0.58,0.27-0.87,0.41c0.07,0.41,0.21,1.16,0.21,1.16
					c0.15,1.22,0.95,7.36,1.09,8.57c0.29-0.14,0.58-0.27,0.87-0.41c-0.29-3.25-0.58-6.49-0.87-9.74
					C137.36,60.97,137.22,60.97,137.07,60.97z"/>
				<path d="M376.03,196.09c-4.65,0.14-9.3,0.27-13.95,0.41c-0.07-5.41-0.21-11.23,1.31-15.01c-6.25-2.16-12.5-4.33-18.75-6.49
					c0.15-5.95,0.29-11.9,0.44-17.85c-15.04-6.55-33.6,0.74-49.71-3.25c-15.77-3.91-40.3,2.22-60.61-0.81
					c-8.08-1.21-18.66-0.27-25.29-1.22c-4.82-0.69-6-3.52-11.77-3.65c-1.15,0.88-1.25,0.8-1.74,2.43c-3.72,0.13-7.13-0.67-10.9-1.22
					c-3.05-4.46-6.1-8.93-9.16-13.39c-1.33-5.37,3.28-12.44-2.62-16.23c-0.94-3.39-0.06-16.01,3.05-23.94
					c1.23-3.12,5.44-6.86,3.92-12.17c-2.88-10.11-26.38-12-40.12-11.77c-0.15-3.92-0.29-7.84-0.44-11.77
					c8.97-2.08,17-11.96,10.03-20.29c2.04-1.51,6.03-1.33,9.48-1.06c-0.71-0.36-1.43-0.36-2.5-0.97c-5-2.68-8.75-6.47-15.7-4.87
					c-4.25,1.21-1.45,6.21-2.62,7.71c-0.29,0.14-0.58,0.27-0.87,0.41c-2.76,0.54-7.18,2-10.03,3.07c-5.52,2.47-9.48,4.93-10.33,5.7
					c-0.86,0.77-3.21,2.57-3.62,5.43c-4.21,0.68-8.43,1.35-12.65,2.03c1.25,2.15,6.5,1.44,7.85,1.22c0.15,0.27-2.78,2.33-3.05,2.84
					c2.76-0.41,5.52-0.81,8.29-1.22c-0.73,0.68-2.18,3.11-2.18,3.65c6.17-0.94,15.26-0.52,23.11-2.43
					c0.11,1.31,1.23,10.57,1.31,11.36c-10.48,1.85-27.02,1.85-29.22,11.36c-1.61,6.98,13.72,26.83,6.54,30.84
					c0.49,2.07,0.78,1.83,2.18,2.84c-1.02,2.52-2.52,3.83-3.05,7.3c0.58,0.54,1.16,1.08,1.74,1.62c-4.77,5.71-14.04,13.86-15.7,21.5
					c-28.07-0.03-50.68-0.25-74.13,3.25c-9.66,1.44-22.64-0.4-30.09,1.22c-3.49-0.14-6.98-0.27-10.47-0.41
					c-11.74,1.82-27.93-0.36-36.63,2.43c-4.64,7.11-0.27,17.68-3.05,27.59c-1.6,2.7-3.2,5.41-4.8,8.11
					c-7.72-1.01-11.16,0.1-16.13,3.25c-1.02-0.12-1.86-0.41-2.62-0.79v105.06c157.26,0,314.54,0,471.81,0v-97.31
					C386.69,198.98,380.63,197.1,376.03,196.09z M137.46,72.31c-0.15-1.22-0.9-8.55-1.04-9.77c0,0-0.14-0.75-0.21-1.16
					c0.29-0.14,0.58-0.27,0.87-0.41c0.15,0,0.29,0,0.44,0c0.29,3.25,0.73,7.74,1.02,10.98C138.24,72.09,137.75,72.18,137.46,72.31z"
					/>
			</g>
		</g>
	</g>
	<g>
		<path class="st2" d="M100.48,202.39c0-1.05,0.2-1.78,0.6-2.17c0.4-0.39,1.15-0.59,2.24-0.59h8.34c1.09,0,1.84,0.2,2.24,0.59
			c0.4,0.39,0.6,1.11,0.6,2.17v6.08c0,1.06-0.2,1.77-0.6,2.15c-0.4,0.38-1.15,0.57-2.24,0.57h-8.34c-1.11,0-1.86-0.19-2.25-0.56
			c-0.39-0.37-0.59-1.1-0.59-2.17V202.39z M102.66,209.45h9.65v-8.1h-9.65V209.45z"/>
		<path class="st2" d="M119.79,201.96c0.11,0.67,0.16,1.36,0.16,2.07v7.17h-2.02v-11.56h1.66l8.48,7.55c0.53,0.47,0.99,1,1.39,1.58
			c-0.13-0.69-0.19-1.41-0.19-2.15v-6.98h2.02v11.56h-1.5l-8.64-7.66C120.57,203.03,120.11,202.5,119.79,201.96z"/>
		<path class="st2" d="M143.56,211.2v-11.56h2.18v9.84h9v1.72H143.56z"/>
		<path class="st2" d="M158.64,211.2h-2.18v-11.56h2.18V211.2z"/>
		<path class="st2" d="M164.15,201.96c0.11,0.67,0.16,1.36,0.16,2.07v7.17h-2.02v-11.56h1.66l8.48,7.55c0.53,0.47,0.99,1,1.39,1.58
			c-0.13-0.69-0.19-1.41-0.19-2.15v-6.98h2.02v11.56h-1.5l-8.64-7.66C164.93,203.03,164.48,202.5,164.15,201.96z"/>
		<path class="st2" d="M179.37,211.2v-11.56h11.64v1.72h-9.46v2.97h5.7v1.72h-5.7v3.44h9.57v1.72H179.37z"/>
	</g>
	<g>
		<path class="st2" d="M80.8,161.54c0.07-1.29-0.66-2.02-1.91-1.95c-5.47,0.29-13.59,5.58-13.4,11.72c0.07,3.31,4.81,4.99,7.57,7.38
			c3.93,3.38,1.54,7.64-2.02,10.17c-2.83,2.02-5.44,2.75-8.89,2.68c-7.9-0.11-16.56-4.66-17.96-12.82
			c-0.55-3.42,4.22-5.44,4.19-3.82c0,1.69,0.18,3.31,1.25,5.29c2.72,4.99,7.64,7.97,13.33,8.19c2.06,0.04,5.1-0.15,6.83-1.36
			c0.95-0.66,1.25-1.51,1.25-2.61c0.04-8.01-9.4-7.57-9.48-13.74c-0.11-7.12,9.14-15.65,16.12-15.5c4.66,0.07,6.94,3.38,6.94,6.24
			c0.07,5.47-6.94,9.92-12.45,9.77c-0.77,0-0.77-1.36-0.04-1.51C75.88,169,80.58,165.07,80.8,161.54z"/>
		<path class="st2" d="M116.87,181.34c-0.4,0-0.88,0.81-1.14,1.1c-2.17,2.64-5.55,6.02-6.72,6.17c-0.33,0.04-0.59,0.04-0.59-0.62
			c-0.07-4.7,3.38-10.8,5.33-14.4c0-1.29-1.84-2.28-2.94-2.35c-0.44,0-0.77,0.11-0.95,0.37c-3.31,2.75-6.87,8.23-9.44,11.83
			c1.47-3.89,3.45-8.89,3.45-9c0-1.32-1.84-2.31-2.94-2.35c-0.48-0.04-0.88,0.11-1.03,0.48c-1.07,2.35-1.8,4.81-2.72,7.2
			c-0.33,0.87-0.65,1.76-0.97,2.65c-0.01,0.01-0.02,0.02-0.02,0.03c-2.17,2.64-5.55,6.02-6.76,6.17c-0.29,0.04-0.55,0.04-0.55-0.62
			c-0.07-4.33,5.1-12.12,5.14-13.55c0-1.32-1.84-2.31-2.97-2.35c-0.48-0.04-0.84,0.11-1.03,0.48l-0.48,1.1
			c-1.14-1.32-2.46-2.31-4.11-2.31c-6.02-0.04-9.29,10.17-9.25,15.31c0,1.84,1.98,4.59,4.11,4.59c1.87,0,3.67-2.9,4.99-5.73
			c-0.04,0.33-0.04,0.66-0.04,0.99c0.07,1.95,2.2,4.74,4.19,4.74c1.94,0,3.62-1.75,5-3.79c-0.22,0.63-0.44,1.26-0.67,1.88
			c-0.4,1.18,1.95,1.91,2.79,1.91c1.03,0,1.25-0.51,1.58-1.36c3.12-4.04,5.88-8.3,9-12.34c-1.29,3.08-2.42,6.35-2.31,8.96
			c0.04,1.95,2.17,4.74,4.15,4.74c3.64,0,6.35-6.13,7.9-8.81c0.15-0.26,0.37-0.48,0.37-0.77
			C117.27,181.49,117.05,181.34,116.87,181.34z M80.32,188.57c-0.7,0.66-0.7-0.22-0.7-0.77c-0.04-3.86,3.53-13.37,8.19-13.37
			c0.44,0,0.84,0.22,1.14,0.44c-0.66,1.47-1.4,2.97-1.98,4.48C84.95,182.62,82.67,186.22,80.32,188.57z"/>
		<g>
			<path class="st2" d="M224.34,168.95c0.84,0.07,1.42,0.07,2.36-0.65c0.65-0.54,1.49-1.63,1.6-2.51c0.15-1.27-1.27-2.14-2.4-2.25
				c-0.73-0.11-1.49-0.07-1.63,0.87c0,0.25-0.29,2.14-0.4,2.69C223.72,167.94,223.43,168.88,224.34,168.95z"/>
			<path class="st2" d="M247.22,175.17c-0.36-0.11-0.98,0.47-1.27,0.65c-1.53,1.13-3.96,3.38-5.01,0.65
				c-0.04-0.87-0.22-1.89-1.02-2.25c-0.58-0.04-2.07,0.47-3.23,1.23c-0.25,0.18-0.18,0.47-0.04,0.76c0.11,0.36,0.29,1.09,0.29,1.45
				c0,2-2.29,10.31-5.52,10.31c-0.65,0-1.09-1.31-1.09-2.14c0.04-4.76,3.41-12.93,8.86-12.82c0.51,0,1.02,0.04,1.6,0.11
				c0.91,0.15,1.2-0.87,0.62-1.53c-1.42-1.63-2.32-2.43-3.74-2.43c-5.36,0-9.74,7.18-10.49,12.42c-2.14,2.61-5.46,5.92-6.65,6.06
				c-0.29,0.04-0.54,0.04-0.54-0.62c-0.07-4.29,5.05-11.99,5.05-13.4c0.04-1.31-1.82-2.29-2.91-2.32c-0.47-0.04-0.84,0.11-1.02,0.47
				c-1.45,3.23-3.2,6.64-4.11,9.77c-2.14,2.61-5.48,5.95-6.64,6.1c-0.33,0.04-0.58,0.04-0.58-0.62c-0.07-4.65,3.34-10.68,5.27-14.24
				c0-1.27-1.82-2.25-2.91-2.32c-0.44,0-0.76,0.11-0.94,0.36c-3.27,2.72-6.79,8.14-9.33,11.7c1.45-3.85,3.41-8.79,3.41-8.9
				c0-1.31-1.82-2.29-2.91-2.32c-0.47-0.04-0.87,0.11-1.02,0.47c-0.6,1.33-1.1,2.7-1.59,4.08c-1.53,1.14-3.91,3.3-4.95,0.61
				c-0.04-0.87-0.22-1.89-1.02-2.25c-0.58-0.04-2.07,0.47-3.23,1.23c-0.25,0.18-0.18,0.47-0.04,0.76c0.11,0.36,0.29,1.09,0.29,1.45
				c0,2-2.29,10.31-5.52,10.31c-0.65,0-1.09-1.31-1.09-2.14c0.04-4.76,3.41-12.93,8.86-12.82c0.51,0,1.02,0.04,1.6,0.11
				c0.91,0.15,1.2-0.87,0.62-1.53c-1.42-1.63-2.32-2.43-3.74-2.43c-5.36,0-9.74,7.18-10.49,12.42c-2.14,2.61-5.46,5.92-6.65,6.06
				c-0.69,0.07-0.8-0.22-0.8-0.84c0-4.58,3.6-12.49,5.34-17.03h1.2c1.85,0,3.27-1.38,3.31-2.18c0.04-0.47-0.11-0.4-0.73-0.4h-2.76
				c0.65-1.74,1.16-3.01,1.16-3.09c0-1.27-1.6-2.25-2.72-2.32c-0.44,0-0.84,0.15-0.98,0.47c-0.73,1.6-1.31,3.27-1.89,4.9h-3.34
				c-0.8,0-0.62,2.62-0.18,2.62h2.51c-1.15,2.99-3.06,7.81-3.99,11.76c0,0,0,0-0.01,0.01c-2.14,2.62-5.48,5.96-6.65,6.1
				c-0.33,0.04-0.58,0.04-0.58-0.62c-0.07-4.65,3.34-10.68,5.27-14.24c0-1.27-1.82-2.25-2.91-2.32c-0.44,0-0.76,0.11-0.94,0.36
				c-3.27,2.72-6.79,8.14-9.33,11.7c1.45-3.85,3.41-8.79,3.41-8.9c0-1.31-1.82-2.29-2.91-2.32c-0.47-0.04-0.87,0.11-1.02,0.47
				c-0.59,1.31-1.08,2.65-1.56,4c-0.01,0-0.03,0-0.04,0c-1.63,0-3.23,0.04-4.76,0.11c1.38-4,4.03-9.92,3.85-13
				c-0.11-2.14-2.72-3.74-4.61-3.74c-2.87,0-6.28,6.03-9.23,12.49c0.73-2.14,4.9-9.48,4.9-11.33c-0.04-2.32-2.47-4.54-4.61-4.54
				c-7.52,0.11-19.14,11.22-19.14,18.45c-0.04,2.76,2,3.92,3.16,4.25c0.65,0.18,0.69-0.15,0.58-0.65c-0.11-0.65-0.07-1.42,0.11-2.22
				c1.23-6.36,8.75-15.98,15.47-17.11c1.23-0.18,0.58,1.82,0.36,2.29c-2.43,5.99-4.54,11.62-6.61,17.43
				c-1.2,0.33-2.32,0.65-4.98,1.56c-1.09,0.33-0.07,3.23,2.43,2.4l1.31-0.44c-0.54,1.82-1.02,3.85-1.63,5.59
				c-0.84,2.36,1.53,3.89,2.72,2.58c1.02-1.02,2.29-7.45,3.6-9.62c2.25-0.65,4.61-1.27,7.16-1.74c-0.94,3.78-2.4,10.82,1.05,12.75
				c1.82,0.98,3.45-0.94,3.49-2.14c0.04-0.62-1.2-1.05-1.71-1.53c0.04-3.34,0.73-6.57,1.67-9.77c1.54-0.16,3.17-0.26,4.83-0.31
				c-0.16,0.46-0.33,0.91-0.5,1.36c-1.16,3.09-2.25,6.36-3.38,9.48c-0.4,1.16,1.92,1.89,2.76,1.89c1.02,0,1.23-0.51,1.56-1.34
				c3.09-4,5.81-8.21,8.9-12.2c-1.27,3.05-2.4,6.28-2.29,8.86c0.04,1.93,2.14,4.69,4.1,4.69c2.55,0,4.64-3.04,6.18-5.76
				c-0.03,0.38-0.05,0.74-0.04,1.07c0.07,1.93,2.43,4.69,4.39,4.69c2.8,0,5.01-3.6,6.6-6.46c0.2,2.95,1.71,6.5,4.92,6.5
				c3.89-0.04,7.45-5.85,8.57-10.24c1.96,0.24,3.3-0.79,4.54-2.04c-0.11,0.29-0.22,0.59-0.33,0.88c-1.16,3.09-2.25,6.36-3.38,9.48
				c-0.4,1.16,1.93,1.89,2.76,1.89c1.02,0,1.23-0.51,1.56-1.34c3.09-4,5.81-8.21,8.9-12.2c-1.27,3.05-2.4,6.28-2.29,8.86
				c0.04,1.93,2.14,4.69,4.1,4.69c2.5,0,4.56-2.92,6.09-5.6c-0.02,0.31-0.03,0.62-0.02,0.91c0.07,1.93,2.14,4.69,4.14,4.69
				c2.77,0,4.98-3.6,6.56-6.46c0.2,2.95,1.71,6.5,4.92,6.5c3.89-0.04,7.45-5.85,8.57-10.24c2.94,0.36,4.5-2.14,6.39-3.96
				c0.18-0.18,0.4-0.33,0.47-0.58C247.51,175.38,247.37,175.2,247.22,175.17z M143.96,176.26c-2.25,0.22-4.43,0.51-6.46,0.91
				c3.2-7.34,7.63-15.76,10.46-15.73C148.54,165.5,145.16,172.48,143.96,176.26z"/>
		</g>
	</g>
	<path class="st3" d="M160.04,231.54c0.29,0,0.54,0.11,0.76,0.33c0.22,0.22,0.33,0.47,0.33,0.76c0,0.14-0.02,0.28-0.07,0.4
		l-4.96,12.32c-0.07,0.19-0.21,0.36-0.4,0.49c-0.19,0.13-0.4,0.2-0.62,0.2h-18.55c-0.22,0-0.42-0.07-0.62-0.2
		c-0.19-0.13-0.33-0.3-0.4-0.49l-4.96-12.32c-0.05-0.12-0.07-0.25-0.07-0.4c0-0.29,0.11-0.54,0.33-0.76
		c0.22-0.22,0.47-0.33,0.76-0.33H160.04z M137.25,243.86h17.1l4.09-10.15h-25.29L137.25,243.86z M157.58,236.33v1.23h-23.55v-1.23
		H157.58z M152.61,223.68c0.39,0,0.66,0.18,0.83,0.54l3.73,8.01l-1.7,0.8l-3.44-7.5h-12.47l-3.44,7.5l-1.7-0.8l3.73-8.01
		c0.17-0.36,0.45-0.54,0.83-0.54H152.61z M136.45,233.1v7.43h-1.23v-7.43H136.45z M156.31,240.02v1.23h-21.02v-1.23H156.31z
		 M140.84,232.63v12.32h-1.23v-12.32H140.84z M149.57,222.88c0.14,0,0.27,0.05,0.36,0.14c0.1,0.1,0.14,0.22,0.14,0.36v2.46
		c0,0.14-0.05,0.27-0.14,0.36c-0.1,0.1-0.22,0.14-0.36,0.14h-7.43c-0.14,0-0.27-0.05-0.36-0.14c-0.1-0.1-0.14-0.22-0.14-0.36v-2.46
		c0-0.14,0.05-0.27,0.14-0.36c0.1-0.1,0.22-0.14,0.36-0.14H149.57z M142.65,225.35h6.41v-1.45h-6.41V225.35z M146.42,232.63v12.32
		h-1.23v-12.32H146.42z M151.38,232.63v12.32h-1.23v-12.32H151.38z M156.31,232.63v11.09h-1.23v-11.09H156.31z"/>
	<g>
		<defs>
			<path id="SVGID_3_" d="M145.8,269.55c-72.7,0-131.85-59.15-131.85-131.85S73.1,5.84,145.8,5.84s131.85,59.15,131.85,131.85
				S218.5,269.55,145.8,269.55z M145.8,16.39c-66.88,0-121.3,54.41-121.3,121.3s54.41,121.3,121.3,121.3s121.3-54.41,121.3-121.3
				S212.68,16.39,145.8,16.39z"/>
		</defs>
		<use xlink:href="#SVGID_3_"  style="overflow:visible;fill:#F9F9F9;"/>
		<clipPath id="SVGID_4_">
			<use xlink:href="#SVGID_3_"  style="overflow:visible;"/>
		</clipPath>
	</g>
</g>
<g class="st4">
	<circle class="st5" cx="1456.15" cy="6801.29" r="40.74"/>
	<g class="st6">
		<g>
			<path class="st3" d="M1478.3,6791.12c1.78,0,3.57-0.08,5.35,0.02c2.75,0.15,4.82,2.39,4.84,5.14c0.02,3.36,0.03,6.71,0,10.07
				c-0.02,2.85-2.32,5.11-5.21,5.14c-3.33,0.03-6.66,0.02-9.99,0c-2.9-0.02-5.18-2.35-5.18-5.25c0-3.29-0.01-6.59,0-9.88
				c0-2.92,2.3-5.23,5.22-5.25c1.66-0.01,3.32,0,4.98,0C1478.3,6791.1,1478.3,6791.11,1478.3,6791.12z M1474.37,6800.83
				c-0.01,3.07,2.29,5.14,4.99,4.84c1-0.11,1.87-0.52,2.59-1.22c0.37-0.36,0.39-0.9,0.08-1.25c-0.33-0.38-0.85-0.42-1.28-0.1
				c-0.1,0.08-0.19,0.16-0.29,0.24c-0.87,0.68-2.08,0.73-3.05,0.13c-0.93-0.59-1.41-1.73-1.18-2.78c0.44-1.97,2.7-2.78,4.29-1.54
				c0.16,0.13,0.34,0.26,0.53,0.33c0.39,0.13,0.83-0.07,1.02-0.43c0.2-0.39,0.13-0.86-0.22-1.15c-1.46-1.24-3.1-1.53-4.84-0.75
				C1475.29,6797.91,1474.45,6799.32,1474.37,6800.83z"/>
			<path class="st3" d="M1433.98,6791.12c1.82,0,3.65-0.07,5.46,0.02c2.53,0.12,4.7,2.42,4.73,4.95c0.03,3.47,0.03,6.94,0,10.4
				c-0.02,2.66-2.33,4.94-5.06,4.98c-3.41,0.04-6.81,0.04-10.22,0c-2.85-0.04-5.09-2.35-5.1-5.21c-0.01-3.33-0.01-6.66,0-9.99
				c0.01-2.87,2.32-5.14,5.26-5.17c1.65-0.02,3.29,0,4.94,0C1433.98,6791.1,1433.98,6791.11,1433.98,6791.12z M1436.6,6804.89
				c0.01,0.02,0.03,0.05,0.05,0.08c0.23,0.56,0.58,0.79,1.08,0.69c0.45-0.09,0.7-0.46,0.71-1.04c0-1.13,0.01-2.27,0-3.4
				c-0.04-2.83-2.63-4.93-5.36-4.35c-2.49,0.53-4.05,3.06-3.38,5.49c0.68,2.49,3.24,3.89,5.69,3.07
				C1435.79,6805.29,1436.18,6805.07,1436.6,6804.89z"/>
			<path class="st3" d="M1445.97,6801.25c0-1.78-0.08-3.57,0.02-5.35c0.14-2.71,2.43-4.8,5.13-4.81c3.32-0.01,6.64-0.01,9.95,0
				c2.97,0.01,5.25,2.32,5.26,5.28c0,3.26,0,6.51,0,9.77c0,3.05-2.3,5.33-5.36,5.33c-3.22,0-6.44,0-9.65,0
				c-3.06,0-5.35-2.27-5.37-5.33c-0.01-1.63,0-3.27,0-4.9C1445.96,6801.25,1445.97,6801.25,1445.97,6801.25z M1453.5,6797.6
				c0-0.89,0.01-1.71-0.01-2.53c-0.01-0.24-0.06-0.5-0.18-0.7c-0.21-0.34-0.63-0.46-0.99-0.34c-0.39,0.12-0.62,0.45-0.62,0.92
				c0,2.1-0.01,4.19,0,6.29c0.01,1.82,1.1,3.44,2.77,4.13c1.66,0.68,3.54,0.3,4.83-1c1.52-1.51,1.72-3.89,0.48-5.7
				c-1.18-1.73-3.53-2.37-5.46-1.49C1454.07,6797.29,1453.82,6797.43,1453.5,6797.6z"/>
		</g>
		<g>
			<path class="st7" d="M1474.37,6800.83c0.09-1.51,0.93-2.92,2.65-3.69c1.74-0.78,3.38-0.49,4.84,0.75
				c0.35,0.3,0.42,0.77,0.22,1.15c-0.19,0.35-0.63,0.56-1.02,0.43c-0.19-0.06-0.37-0.2-0.53-0.33c-1.59-1.24-3.85-0.44-4.29,1.54
				c-0.23,1.05,0.25,2.19,1.18,2.78c0.96,0.61,2.18,0.56,3.05-0.13c0.1-0.08,0.19-0.16,0.29-0.24c0.42-0.32,0.95-0.27,1.28,0.1
				c0.31,0.35,0.29,0.89-0.08,1.25c-0.72,0.71-1.59,1.11-2.59,1.22C1476.65,6805.97,1474.36,6803.9,1474.37,6800.83z"/>
			<path class="st7" d="M1438.43,6801.22c-0.04-2.83-2.63-4.93-5.36-4.35c-2.49,0.53-4.05,3.06-3.38,5.49
				c0.68,2.49,3.24,3.89,5.69,3.07c0.42-0.14,0.81-0.36,1.23-0.54c0.01,0.02,0.03,0.05,0.05,0.08c0.23,0.56,0.58,0.79,1.08,0.69
				c0.45-0.09,0.7-0.46,0.71-1.04C1438.43,6803.48,1438.44,6802.35,1438.43,6801.22z M1434,6803.86c-1.49-0.01-2.67-1.19-2.66-2.66
				c0.01-1.45,1.2-2.63,2.66-2.62c1.46,0.01,2.63,1.2,2.63,2.66C1436.62,6802.67,1435.42,6803.87,1434,6803.86z"/>
			<path class="st3" d="M1434,6798.58c-1.46-0.01-2.66,1.16-2.66,2.62c-0.01,1.47,1.17,2.65,2.66,2.66
				c1.42,0.01,2.62-1.19,2.63-2.62C1436.63,6799.78,1435.46,6798.59,1434,6798.58z"/>
			<path class="st7" d="M1459.78,6798.66c-1.18-1.73-3.53-2.37-5.46-1.49c-0.26,0.12-0.51,0.26-0.83,0.42
				c0-0.89,0.01-1.71-0.01-2.53c-0.01-0.24-0.06-0.5-0.18-0.7c-0.21-0.34-0.63-0.46-0.99-0.34c-0.39,0.12-0.62,0.45-0.62,0.92
				c0,2.1-0.01,4.19,0,6.29c0.01,1.82,1.1,3.44,2.77,4.13c1.66,0.68,3.54,0.3,4.83-1
				C1460.82,6802.85,1461.02,6800.47,1459.78,6798.66z M1456.13,6803.87c-1.47,0-2.63-1.17-2.63-2.64c0-1.47,1.17-2.64,2.63-2.64
				c1.49,0,2.66,1.17,2.65,2.66C1458.78,6802.71,1457.61,6803.87,1456.13,6803.87z"/>
			<path class="st3" d="M1456.13,6798.59c-1.46,0-2.62,1.17-2.63,2.64c0,1.46,1.16,2.63,2.63,2.64c1.47,0,2.65-1.16,2.65-2.62
				C1458.79,6799.76,1457.62,6798.59,1456.13,6798.59z"/>
		</g>
	</g>
</g>
<g class="st4">
	<circle class="st8" cx="1150.96" cy="6800.86" r="40.43"/>
	<g class="st6">
		<path class="st3" d="M1139.62,6805.62c-0.61-0.11-0.68-0.47-0.51-1.46c0.19-1.18,2.73-13.61,2.73-13.61l-1.56-0.02
			c0,0-2.49,12.27-2.71,13.45c-0.33,1.87,0.63,2.13,1.14,2.22c0.95,0.15,1.58,0,1.58,0l0.1-0.62
			C1140.4,6805.6,1140.04,6805.71,1139.62,6805.62 M1171.18,6790.84l-1.56-0.02c0,0-2.49,12.27-2.71,13.45
			c-0.34,1.87,0.63,2.13,1.14,2.22c0.95,0.15,1.58,0,1.58,0l0.1-0.62c0,0-0.35,0.11-0.78,0.04c-0.61-0.11-0.68-0.47-0.51-1.46
			C1168.64,6803.28,1171.18,6790.84,1171.18,6790.84 M1146.81,6803.03c-0.19,0.62-0.96,2.79-2.7,2.77
			c-2.08-0.02-1.04-3.17-0.87-3.77c0.17-0.61,0.95-2.84,2.63-2.83C1147.91,6799.22,1146.99,6802.41,1146.81,6803.03
			 M1147.59,6799.48l-0.05,0c-0.41-0.78-1.17-1.03-1.95-1.03c-2.36-0.02-3.74,1.92-4.15,3.8c-0.59,2.69,0.19,4.23,2.43,4.26
			c0.97,0.01,1.7-0.23,2.66-1.1l0.41,0.88l0.97,0.01l1.52-7.57l-1.67-0.02L1147.59,6799.48z M1155.9,6803.13
			c-0.17,0.62-0.95,2.79-2.51,2.78c-1.87-0.02-1.22-3.18-1.06-3.77c0.26-0.98,0.83-2.77,2.38-2.76
			C1156.83,6799.39,1156.07,6802.5,1155.9,6803.13 M1155.35,6798.54c-0.92-0.01-2.13,0.52-2.64,1.22l1.85-9.14l-1.56-0.02
			c0,0-2.51,12.66-3.21,15.7l0.98,0.01l0.56-0.87c0.57,0.88,1.2,1.13,2.17,1.14c2.23,0.02,3.71-1.5,4.31-4.19
			C1158.21,6800.53,1157.71,6798.56,1155.35,6798.54 M1134.1,6802.9c-0.19,0.62-0.96,2.79-2.7,2.77c-2.08-0.02-1.04-3.17-0.87-3.77
			c0.17-0.61,0.95-2.84,2.63-2.83C1135.21,6799.1,1134.29,6802.29,1134.1,6802.9 M1134.88,6799.35l-0.05,0
			c-0.41-0.78-1.16-1.03-1.95-1.03c-2.36-0.02-3.74,1.92-4.15,3.8c-0.59,2.69,0.19,4.23,2.43,4.26c0.97,0.01,1.7-0.23,2.66-1.1
			l0.41,0.88l0.97,0.01l1.52-7.57l-1.67-0.02L1134.88,6799.35z M1164.49,6802.09l-3.97-0.04c0.28-1.01,1.13-2.62,2.59-2.6
			C1164.7,6799.48,1164.73,6801.08,1164.49,6802.09 M1163.27,6798.64c-2.08-0.02-3.95,1.37-4.41,3.58c-0.77,3.73,2,4.48,3.17,4.49
			c1,0.01,1.8-0.33,2.4-0.77l-0.52-0.62c-0.42,0.25-0.92,0.44-1.47,0.43c-1.93-0.02-2.2-1.67-2.08-2.82l5.56,0.05
			C1166.51,6801.11,1165.93,6798.66,1163.27,6798.64 M1173.23,6805.95c-0.61-0.11-0.67-0.47-0.51-1.46
			c0.19-1.18,2.73-13.61,2.73-13.61l-1.56-0.02c0,0-2.49,12.27-2.71,13.45c-0.34,1.87,0.63,2.13,1.14,2.22c0.95,0.15,1.58,0,1.58,0
			l0.1-0.62C1174.01,6805.93,1173.66,6806.04,1173.23,6805.95 M1180.43,6803.36c-0.19,0.62-0.96,2.79-2.7,2.77
			c-2.08-0.02-1.03-3.17-0.87-3.77c0.17-0.61,0.95-2.84,2.62-2.83C1181.54,6799.55,1180.62,6802.74,1180.43,6803.36
			 M1181.38,6799.03l-0.17,0.79l-0.05,0c-0.41-0.78-1.17-1.03-1.95-1.03c-2.36-0.02-3.74,1.92-4.15,3.8
			c-0.59,2.69,0.19,4.23,2.43,4.26c0.97,0.01,1.7-0.23,2.66-1.1l0.41,0.88l0.97,0.01l1.52-7.57l-1.67-0.02L1181.38,6799.03z
			 M1128.71,6797.98l-2.92-0.03l1.23-6.11c0.38-1.85,0.6-2.65,1.19-3.31c0.31-0.37,0.58-0.58,1.03-0.71
			c0.34-0.09,0.91,0.01,0.91,0.01l0.08-0.64c-0.26-0.05-0.67-0.05-0.67-0.05c-1.05,0-2.05,0.47-2.8,1.34
			c-1.11,1.22-1.43,2.71-1.76,4.43l-1.01,5.02l-2.84-0.03l-0.19,0.81l2.86,0.03l-2.12,10.61c-0.39,1.85-0.53,2.33-1.08,3.14
			c-0.35,0.51-0.72,0.75-1.31,0.84c-0.1,0.01-0.22,0.02-0.33,0.01l-0.2,0.69l0.36,0.01c1.06,0.01,2.06-0.47,2.82-1.33
			c1.12-1.24,1.43-2.73,1.78-4.45l1.91-9.53l2.9,0.03L1128.71,6797.98z"/>
	</g>
</g>
<g class="st4">
	<circle class="st9" cx="1760.78" cy="6801.29" r="40.39"/>
	<g class="st6">
		<path class="st3" d="M1758.43,6796.89c-0.53-1.15-2.5-0.16-1.94,0.86c0.82,1.5,4.63,10.28,5.23,11.44c0.55,1.06,1.23,1.03,1.79,0
			c0.6-1.08,3.77-8.75,5.05-11.55c0.57-1.26-1.17-1.68-1.64-0.45c-0.71,1.83-3.43,9-3.7,9.46c-0.26,0.45-0.56,0.67-0.93,0.11
			C1761.99,6806.32,1758.91,6797.93,1758.43,6796.89z"/>
		<path class="st3" d="M1785.65,6808.7c-0.06,1.32-2.12,1.5-2.19,0.15c-0.04-0.77,0.04-7.36,0.07-9.47
			c0.03-1.41,2.03-2.34,2.85-2.49c0.82-0.15,3.74-0.06,4.97,0c1.46,0.07,1.2,2.09,0.3,2.09s-3.77-0.15-4.78,0.07
			c-0.47,0.11-1.05,0.62-1.1,1.44C1785.69,6801.87,1785.7,6807.55,1785.65,6808.7z"/>
		<path class="st3" d="M1740.23,6794.68c0.04-1.29,1.83-1.34,1.91,0c0.11,1.91,0.52,11.66-0.34,14.35c-0.47,1.46-2.32,3.77-3.29,4.3
			c-1.11,0.6-3.14,0.93-4.26,0.37c-0.98-0.49-2.77-2.16-2.95-3.33c-0.22-1.46-0.41-2.95-0.11-4.52c0.2-1.04,1.65-0.81,1.61-0.04
			c-0.04,0.75-0.15,2.32,0.07,3.44c0.16,0.8,1.21,2.22,1.76,2.62c0.67,0.49,2.71,0.1,3.4-0.34c0.41-0.26,1.81-2.2,2.06-3.14
			C1740.6,6806.42,1740.15,6797.33,1740.23,6794.68z"/>
		<path class="st3" d="M1756.48,6808.85c-0.07-0.8-0.04-6.62-0.19-7.74c-0.26-2.02-2.31-3.98-3.77-4.45
			c-2.32-0.75-3.49-0.9-5.38-0.07c-1.79,0.79-2.85,1.75-3.51,3.51c-0.64,1.68-0.78,2.84-0.3,4.82c0.52,2.12,1.94,3.65,3.85,4.07
			c1.68,0.37,2.73,0.6,4.56,0.15c1.99-0.49,2.84-1.72,2.84-1.72s0.02,1.43,0.07,1.94
			C1754.76,6810.34,1756.56,6809.74,1756.48,6808.85z M1749.56,6807.87c-2.78,0-5.04-2.24-5.04-5c0-2.76,2.26-5,5.04-5
			s5.04,2.24,5.04,5C1754.6,6805.64,1752.35,6807.87,1749.56,6807.87z"/>
		<path class="st3" d="M1781.63,6803.31c0,0,0.11-5-4.3-6.35c-1.46-0.45-3.54-0.28-4.56,0.15c-1.49,0.64-3.3,2.79-3.66,4.45
			c-0.37,1.72-0.19,3.19,0.52,4.71c0.52,1.12,1.16,1.91,2.8,2.95c1.58,1.01,4.75,0.76,6.24-0.37c1.16-0.88,1.96-2,2.58-2.84
			c0.64-0.88-0.28-2.18-1.09-1.19c-0.56,0.69-0.99,1.3-2.26,2.27c-1.35,1.04-3.22,1.12-4.57,0.56c-0.57-0.24-1.71-0.94-2.15-1.89
			c-0.49-1.06-0.24-2.37-0.24-2.37L1781.63,6803.31z M1773.52,6798.6c0.9-0.51,3.39-0.36,4.07,0.11c1.79,1.23,1.87,3.36,1.87,3.36
			h-8.48C1770.98,6802.08,1771.21,6799.91,1773.52,6798.6z"/>
	</g>
</g>
<g class="st4">
	<path class="st10" d="M806.03,4382.19c0-22.44,18.21-40.65,40.65-40.65s40.65,18.21,40.65,40.65c0,22.44-18.21,40.65-40.65,40.65
		S806.03,4404.64,806.03,4382.19"/>
	<g id="g14_15_" transform="matrix(0.34488752,0,0,0.34488752,242.1519,327.89158)" class="st6">
		<path id="path2_15_" class="st11" d="M1834.01,11756.41c1.32-0.27,12.98-5.61,14.02-6.21c2.38-1.37,3.19-4.41,1.82-6.79
			s-4.41-3.19-6.79-1.82c-1.04,0.6-11.5,8.03-12.39,9.03c-1.02,1.15-1.2,2.8-0.44,4.11
			C1830.98,11756.05,1832.5,11756.72,1834.01,11756.41L1834.01,11756.41z"/>
		<path id="path4_15_" class="st11" d="M1848.03,11768.23c-1.04-0.6-12.7-5.94-14.02-6.21c-1.51-0.31-3.03,0.36-3.78,1.67
			c-0.76,1.31-0.58,2.96,0.44,4.11c0.89,1,11.35,8.43,12.39,9.03c2.38,1.37,5.41,0.56,6.79-1.82S1850.4,11769.61,1848.03,11768.23z"
			/>
		<path id="path6_15_" class="st11" d="M1822.47,11768.17c-1.52,0-2.85,0.98-3.34,2.44c-0.42,1.28-1.63,14.04-1.63,15.25
			c0,2.74,2.22,4.97,4.97,4.97s4.97-2.22,4.97-4.97c0-1.2-1.2-13.97-1.63-15.25C1825.32,11769.15,1823.98,11768.17,1822.47,11768.17
			L1822.47,11768.17z"/>
		<path id="path8_15_" class="st11" d="M1810.92,11762.02c-1.32,0.27-12.98,5.61-14.02,6.21c-2.38,1.37-3.19,4.41-1.82,6.79
			c1.37,2.38,4.41,3.19,6.79,1.82c1.04-0.6,11.5-8.03,12.39-9.03c1.02-1.15,1.2-2.8,0.44-4.11
			C1813.95,11762.38,1812.43,11761.71,1810.92,11762.02L1810.92,11762.02z"/>
		<path id="path10_15_" class="st11" d="M1801.87,11741.59c-2.38-1.37-5.41-0.56-6.79,1.82s-0.56,5.41,1.82,6.79
			c1.04,0.6,12.7,5.94,14.02,6.21c1.51,0.31,3.03-0.36,3.78-1.67c0.76-1.31,0.58-2.96-0.44-4.11
			C1813.37,11749.62,1802.91,11742.19,1801.87,11741.59z"/>
		<path id="path12_15_" class="st11" d="M1822.47,11727.6c-2.74,0-4.97,2.22-4.97,4.97c0,1.2,1.2,13.97,1.63,15.25
			c0.49,1.46,1.82,2.44,3.34,2.44c1.52,0,2.85-0.98,3.34-2.44c0.42-1.28,1.63-14.04,1.63-15.25
			C1827.43,11729.82,1825.21,11727.6,1822.47,11727.6z"/>
	</g>
	<g id="g70_15_" transform="matrix(4.4093677,0,0,4.4093677,-528.63986,1132.4594)" class="st6">
		<g id="g12_15_">
		</g>
		<g id="g68_15_">
			<g id="g60_15_">
				<path id="path34-7_15_" class="st3" d="M306.54,735.85c0,0-0.29,1.03-0.49,1.83l-0.09,0.31c-0.04,0.16,0.07,0.16,0.07,0.16h0.56
					l-0.13,0.51h-0.63l0,0c0,0-0.29,0.02-0.42-0.13c-0.13-0.16-0.11-0.31-0.09-0.4c0-0.07,0.27-1.07,0.27-1.07l0.34-1.21H306.54z"/>
				<path id="path36-1_15_" class="st3" d="M310.52,735.85l-0.45,1.85c-0.27,0.96-1.25,0.98-1.25,0.98
					c-0.56,0.04-1.03-0.18-1.07-0.67c-0.11-1.03,1.01-1.68,1.97-1.27c0.07-0.29,0.18-0.56,0.22-0.87h0.58V735.85z M308.49,737.34
					c-0.11,0.18-0.2,0.51-0.07,0.74c0.13,0.25,0.58,0.25,0.8,0.07s0.31-0.69,0.4-1.03C309.22,736.83,308.69,737.03,308.49,737.34"/>
				<path id="path38-1_15_" class="st3" d="M310.85,737.77c-0.11,0.67,0.89,0.56,1.23,0.31c-0.04,0.16-0.04,0.34-0.07,0.49
					c-0.78,0.25-1.68,0.07-1.74-0.63c-0.09-0.85,0.6-1.3,1.34-1.34c0.42-0.02,0.89,0.04,1.03,0.34c0.07,0.18,0.02,0.42-0.09,0.54
					C312.22,737.81,311.43,737.9,310.85,737.77 M311.43,737.45c0.25-0.02,0.69-0.11,0.6-0.34c-0.04-0.13-0.34-0.18-0.51-0.13
					c-0.27,0.04-0.47,0.25-0.58,0.42C311.1,737.45,311.26,737.45,311.43,737.45"/>
				<path id="path40-5_15_" class="st3" d="M314.52,736.63c0,0-0.16,0.45-0.16,0.47c-0.16-0.04-0.22-0.13-0.45-0.11
					c-0.56,0.07-0.69,0.78-0.8,1.34l-0.04,0.34h-0.6c0.16-0.67,0.31-1.39,0.49-2.06c0.18,0,0.4,0,0.58,0l-0.02,0.16
					C313.74,736.63,314.14,736.54,314.52,736.63"/>
				<path id="path42-2_15_" class="st3" d="M307.79,736.63c-0.16,0.67-0.34,1.36-0.47,2.03h-0.6c0.13-0.54,0.25-1.07,0.38-1.61
					h-0.31l0.11-0.42H307.79z"/>
				<path id="path44-7_15_" class="st3" d="M307.9,736.11c0,0.2-0.18,0.29-0.38,0.29c-0.2,0-0.38-0.13-0.38-0.29
					c0-0.16,0.18-0.29,0.38-0.29C307.75,735.82,307.9,735.96,307.9,736.11"/>
			</g>
		</g>
	</g>
</g>
<g class="st4">
	<path class="st10" d="M1721.35,4382.02c0-22.36,18.14-40.5,40.5-40.5c22.36,0,40.5,18.14,40.5,40.5s-18.14,40.5-40.5,40.5
		C1739.49,4422.52,1721.35,4404.38,1721.35,4382.02"/>
	<g id="g14_14_" transform="matrix(0.34488752,0,0,0.34488752,242.1519,327.89158)" class="st6">
		<path id="path2_14_" class="st11" d="M4487.25,11755.9c1.31-0.27,12.93-5.59,13.97-6.19c2.37-1.37,3.18-4.39,1.81-6.76
			c-1.37-2.37-4.39-3.18-6.76-1.81c-1.04,0.6-11.45,8-12.34,9c-1.02,1.15-1.2,2.79-0.44,4.1S4485.74,11756.21,4487.25,11755.9
			L4487.25,11755.9z"/>
		<path id="path4_14_" class="st11" d="M4501.21,11767.68c-1.04-0.6-12.65-5.92-13.97-6.19c-1.5-0.31-3.02,0.36-3.77,1.67
			s-0.58,2.95,0.44,4.1c0.89,1,11.31,8.4,12.34,9c2.37,1.37,5.39,0.56,6.76-1.81S4503.58,11769.05,4501.21,11767.68z"/>
		<path id="path6_14_" class="st11" d="M4475.75,11767.62c-1.51,0-2.84,0.97-3.33,2.43c-0.42,1.27-1.62,13.99-1.62,15.19
			c0,2.73,2.22,4.95,4.95,4.95s4.95-2.22,4.95-4.95c0-1.2-1.2-13.92-1.62-15.19C4478.59,11768.59,4477.26,11767.62,4475.75,11767.62
			L4475.75,11767.62z"/>
		<path id="path8_14_" class="st11" d="M4464.25,11761.49c-1.31,0.27-12.93,5.59-13.97,6.19c-2.37,1.37-3.18,4.39-1.81,6.76
			s4.39,3.18,6.76,1.81c1.04-0.6,11.45-8,12.34-9c1.02-1.15,1.2-2.79,0.44-4.1C4467.26,11761.85,4465.75,11761.18,4464.25,11761.49
			L4464.25,11761.49z"/>
		<path id="path10_14_" class="st11" d="M4455.23,11741.14c-2.37-1.37-5.39-0.56-6.76,1.81c-1.37,2.37-0.56,5.39,1.81,6.76
			c1.04,0.6,12.65,5.92,13.97,6.19c1.5,0.31,3.02-0.36,3.77-1.67s0.58-2.95-0.44-4.1
			C4466.69,11749.13,4456.27,11741.73,4455.23,11741.14z"/>
		<path id="path12_14_" class="st11" d="M4475.75,11727.2c-2.73,0-4.95,2.22-4.95,4.95c0,1.2,1.2,13.92,1.62,15.19
			c0.48,1.46,1.82,2.43,3.33,2.43s2.84-0.97,3.33-2.43c0.42-1.27,1.62-13.99,1.62-15.19
			C4480.7,11729.41,4478.48,11727.2,4475.75,11727.2z"/>
	</g>
	<g id="g70_14_" transform="matrix(4.4093677,0,0,4.4093677,-528.63986,1132.4594)" class="st6">
		<g id="g12_14_">
		</g>
		<g id="g68_14_">
			<g id="g60_14_">
				<path id="path34-7_14_" class="st3" d="M514.11,735.81c0,0-0.29,1.02-0.49,1.83l-0.09,0.31c-0.04,0.16,0.07,0.16,0.07,0.16h0.56
					l-0.13,0.51h-0.62l0,0c0,0-0.29,0.02-0.42-0.13s-0.11-0.31-0.09-0.4c0-0.07,0.27-1.07,0.27-1.07l0.33-1.2H514.11z"/>
				<path id="path36-1_14_" class="st3" d="M518.08,735.81l-0.45,1.85c-0.27,0.96-1.25,0.98-1.25,0.98
					c-0.56,0.04-1.02-0.18-1.07-0.67c-0.11-1.02,1-1.67,1.96-1.27c0.07-0.29,0.18-0.56,0.22-0.87h0.58V735.81z M516.05,737.3
					c-0.11,0.18-0.2,0.51-0.07,0.73c0.13,0.24,0.58,0.24,0.8,0.07c0.22-0.18,0.31-0.69,0.4-1.02
					C516.78,736.79,516.25,736.99,516.05,737.3"/>
				<path id="path38-1_14_" class="st3" d="M518.41,737.72c-0.11,0.67,0.89,0.56,1.22,0.31c-0.04,0.16-0.04,0.33-0.07,0.49
					c-0.78,0.24-1.67,0.07-1.74-0.62c-0.09-0.85,0.6-1.29,1.34-1.34c0.42-0.02,0.89,0.04,1.02,0.33c0.07,0.18,0.02,0.42-0.09,0.53
					C519.77,737.77,518.99,737.86,518.41,737.72 M518.99,737.41c0.24-0.02,0.69-0.11,0.6-0.33c-0.04-0.13-0.33-0.18-0.51-0.13
					c-0.27,0.04-0.47,0.24-0.58,0.42C518.65,737.41,518.81,737.41,518.99,737.41"/>
				<path id="path40-5_14_" class="st3" d="M522.06,736.59c0,0-0.16,0.45-0.16,0.47c-0.16-0.04-0.22-0.13-0.45-0.11
					c-0.56,0.07-0.69,0.78-0.8,1.34l-0.04,0.33h-0.6c0.16-0.67,0.31-1.38,0.49-2.05c0.18,0,0.4,0,0.58,0l-0.02,0.16
					C521.28,736.59,521.68,736.5,522.06,736.59"/>
				<path id="path42-2_14_" class="st3" d="M515.36,736.59c-0.16,0.67-0.33,1.36-0.47,2.03h-0.6c0.13-0.53,0.24-1.07,0.38-1.6h-0.31
					l0.11-0.42H515.36z"/>
				<path id="path44-7_14_" class="st3" d="M515.47,736.08c0,0.2-0.18,0.29-0.38,0.29c-0.2,0-0.38-0.13-0.38-0.29
					s0.18-0.29,0.38-0.29C515.32,735.79,515.47,735.92,515.47,736.08"/>
			</g>
		</g>
	</g>
</g>
</svg>
