<?xml version="1.0" encoding="utf-8"?>
<!-- Generator: Adobe Illustrator 25.3.1, SVG Export Plug-In . SVG Version: 6.00 Build 0)  -->
<svg version="1.1" id="Capa_1" xmlns="http://www.w3.org/2000/svg" xmlns:xlink="http://www.w3.org/1999/xlink" x="0px" y="0px"
	 viewBox="0 0 58 55" style="enable-background:new 0 0 58 55;" xml:space="preserve">
<style type="text/css">
	.st0{fill:#FFFFFF;}
	.st1{fill:#F7931E;}
	.st2{fill:none;}
</style>
<g>
	<circle class="st0" cx="29.41" cy="27.06" r="23.95"/>
	<g>
		<path class="st1" d="M24.48,23.86h1.46v-3.61l1.6-5.73H26.2c-0.54,1.92-0.81,3.07-0.81,3.45H25c0-0.36-0.27-1.52-0.81-3.45h-1.33
			c1.08,3.73,1.62,5.78,1.62,6.14V23.86z"/>
		<path class="st1" d="M27.54,19.05v2.67c0,1.6,0.63,2.4,1.88,2.4c1.24-0.15,1.86-0.76,1.86-1.86v-3.61c0-0.9-0.44-1.52-1.33-1.86
			h-1.07c-0.89,0.44-1.33,0.93-1.33,1.46C27.54,18.35,27.54,19.05,27.54,19.05z M28.87,18.39c0-0.13,0.13-0.27,0.39-0.42h0.28
			c0.35,0.13,0.52,0.53,0.52,1.2V22c0,0.61-0.27,0.92-0.81,0.92l-0.39-0.52V18.39z"/>
		<path class="st1" d="M32.87,23.86h1.07c0.04,0,0.27-0.17,0.68-0.52c0.17,0,0.26,0.17,0.26,0.52h0.92c0.19,0,0.28-0.09,0.28-0.26
			v-6.54h-1.2c0,0.17,0,0.92,0,0.92v3.48c0,0.09,0,0.39,0,0.39V22c-0.23,0.44-0.42,0.66-0.55,0.66h-0.39
			c-0.17,0-0.26-0.09-0.26-0.26v-5.33h-1.2v6.4C32.48,23.58,32.61,23.71,32.87,23.86z"/>
		<path class="st2" d="M28.61,30.13h-0.55c-0.26,0.13-0.39,0.26-0.39,0.39v4.94c-0.04,0.19-0.26,0.36-0.66,0.52
			c-0.28,0-0.42-0.09-0.42-0.26v-5.2c0-0.2-0.26-0.34-0.79-0.39h-0.13c-0.28,0.13-0.42,0.26-0.42,0.39v6.01
			c0.25,0.52,0.6,0.79,1.07,0.79c0.09,0,0.53-0.26,1.33-0.79c0.03,0.44,0.16,0.66,0.39,0.66h0.68c0.17,0,0.26-0.09,0.26-0.26v-6.4
			C28.87,30.26,28.74,30.13,28.61,30.13z"/>
		<path class="st2" d="M25.39,28.12c-0.13-0.26-0.26-0.39-0.39-0.39h-3.87c-0.15,0-0.23,0.09-0.26,0.26v0.81
			c0.13,0.26,0.26,0.39,0.39,0.39h1.07v7.21c0,0.44,0.13,0.7,0.39,0.79h0.81c0.17,0,0.26-0.09,0.26-0.26v-7.74H25
			c0.26-0.07,0.39-0.34,0.39-0.79V28.12z"/>
		<path class="st2" d="M32.74,30.13h-0.39l-0.68,0.52h-0.13v-2.54c-0.13-0.26-0.26-0.39-0.39-0.39h-0.68
			c-0.15,0-0.23,0.09-0.26,0.26v8.81c0.15,0.26,0.28,0.39,0.39,0.39h0.55l0.52-0.39c0.51,0.35,0.91,0.52,1.2,0.52
			c0.63,0,0.98-0.49,1.07-1.46v-3.87C33.94,30.75,33.54,30.13,32.74,30.13z M32.61,35.86c0,0.19-0.09,0.28-0.26,0.28h-0.42
			c-0.26-0.15-0.39-0.28-0.39-0.42v-4.13c0-0.15,0.09-0.23,0.26-0.26h0.68l0.13,0.66V35.86z"/>
		<path class="st2" d="M37,30c-1.41,0-2.12,0.89-2.12,2.67l0.13,0.79l-0.13,0.94c0,1.95,0.53,2.93,1.6,2.93h0.68
			c0.86,0,1.39-0.66,1.6-1.99v-0.26c-0.15-0.28-0.28-0.42-0.42-0.42h-0.79c-0.13,0.99-0.31,1.49-0.55,1.49l-0.66-0.15v-0.26
			c0-0.36-0.04-0.85-0.13-1.46c0.09-0.17,0.13-0.31,0.13-0.39h1.99c0.28-0.15,0.42-0.28,0.42-0.42v-1.46C38.57,30.66,37.99,30,37,30
			z M37.42,32.53l-0.13,0.26c-0.1,0-0.24-0.04-0.42-0.13c-0.09,0-0.22,0.04-0.39,0.13c0-0.09-0.04-0.13-0.13-0.13
			c0-0.89,0.09-1.33,0.26-1.33H37c0.28,0.07,0.42,0.34,0.42,0.79V32.53z"/>
		<path class="st1" d="M31.8,31.33c-0.17,0.03-0.26,0.12-0.26,0.26v4.13c0,0.13,0.13,0.27,0.39,0.42h0.42
			c0.17,0,0.26-0.09,0.26-0.28v-3.87l-0.13-0.66H31.8z"/>
		<path class="st1" d="M35.54,25.58H23.28c-3.29,0-4.94,1.78-4.94,5.35v3.19c0,3.64,1.73,5.46,5.2,5.46h11.47
			c3.64,0,5.46-1.6,5.46-4.79v-4.15C40.48,27.27,38.83,25.58,35.54,25.58z M25,29.19h-1.2v7.74c0,0.17-0.09,0.26-0.26,0.26h-0.81
			c-0.26-0.09-0.39-0.35-0.39-0.79v-7.21h-1.07c-0.13,0-0.26-0.13-0.39-0.39v-0.81c0.03-0.17,0.12-0.26,0.26-0.26H25
			c0.13,0,0.26,0.13,0.39,0.39v0.28C25.39,28.86,25.26,29.12,25,29.19z M29,36.93c0,0.17-0.09,0.26-0.26,0.26h-0.68
			c-0.23,0-0.36-0.22-0.39-0.66c-0.8,0.52-1.25,0.79-1.33,0.79c-0.47,0-0.82-0.26-1.07-0.79v-6.01c0-0.13,0.14-0.26,0.42-0.39h0.13
			c0.52,0.06,0.79,0.19,0.79,0.39v5.2c0,0.17,0.14,0.26,0.42,0.26c0.39-0.16,0.61-0.34,0.66-0.52v-4.94c0-0.13,0.13-0.26,0.39-0.39
			h0.55c0.13,0,0.26,0.13,0.39,0.39V36.93z M33.94,35.86c-0.09,0.98-0.44,1.46-1.07,1.46c-0.29,0-0.69-0.17-1.2-0.52l-0.52,0.39
			H30.6c-0.12,0-0.25-0.13-0.39-0.39v-8.81c0.03-0.17,0.12-0.26,0.26-0.26h0.68c0.13,0,0.26,0.13,0.39,0.39v2.54h0.13l0.68-0.52
			h0.39c0.8,0,1.2,0.62,1.2,1.86V35.86z M38.75,33.45c0,0.13-0.14,0.27-0.42,0.42h-1.99c0,0.04-0.01,0.09-0.03,0.14
			c-0.02,0.07-0.06,0.15-0.1,0.25c0.01,0.06,0.02,0.11,0.02,0.17c0.07,0.54,0.11,0.97,0.11,1.3v0.26l0.17,0.04L37,36.14
			c0.23,0,0.42-0.5,0.55-1.49h0.79c0.13,0,0.27,0.14,0.42,0.42v0.26c-0.2,1.33-0.74,1.99-1.6,1.99h-0.68c-1.06,0-1.6-0.98-1.6-2.93
			v-1.73c0-1.78,0.71-2.67,2.12-2.67c0.99,0,1.57,0.66,1.75,1.99V33.45z"/>
		<path class="st1" d="M37,31.33h-0.39c-0.17,0-0.26,0.44-0.26,1.33c0.09,0,0.08,0.15,0.17,0.15c0.18,0.09,0.67-0.02,0.77-0.02
			l0.13-0.26v-0.42C37.42,31.67,37.28,31.41,37,31.33z"/>
	</g>
</g>
</svg>
